<?xml version="1.0" encoding="UTF-8"?>
<svg id="Layer_1" data-name="Layer 1" xmlns="http://www.w3.org/2000/svg" viewBox="0 0 177.82 294.67">
  <defs>
    <style>
      .cls-1 {
        fill: #231f20;
        stroke-width: 0px;
      }
    </style>
  </defs>
  <path class="cls-1" d="M122.08,234.08c.17.14.32.19.52.18.28,0,.28-.28.28-.28l1.07-1.68.79,1.37.33,1.52-.14.08-1.21.71-.5.03s-.78-.32-1.73-.38c-.73-.05-2.15.3-3.2,1.35-.47.47-.41,1.99-.3,2.64.17,1.04,1.32,2.51,2.03,3.46.86,1.16,3.26,3.5,4.24,4.55,1.78,1.9,4.98,5.76,6.32,8.25.9,1.68,1.63,3.69,2.22,5.63.26.84.98-1.76,1.3-3.35.23-1.15.64-2.85.91-5.67.18-1.86.74-6.22.74-9.35,0-1.1,0-3.75-.84-5.64-.56-1.26-2.34-2.87-3.61-3.41-.79-.34-2.26-.35-3.43-.18-.27.04-1.74.3-1.5.61.33.44,2.02,1.35,2.46,2.16.25.46-1.68-.58-2.24-.76-.43-.14-.93-.24-1.57-.05-.53.16,1.25,1.34,1.73,1.73.88.71,2.33,1.92,3.18,2.67.32.29,1.06.8,1.47,1.5.29.49-2.53-1.3-3.07-1.57-.39-.2.81,2.17,1.14,2.87.55,1.15,1.41,3.52,1.75,4.75.43,1.53,1.15,4.06,1.12,6.17-.02,1.36-1.28-3.95-1.73-5.23-.52-1.48-1.65-4.34-2.31-5.77-.56-1.22-1.56-3.15-2.36-4.22-.54-.72-1.97-2.9-2.21-2.46-.26.47-.76,1.56-.94,2.11-.17.51-.63,2.89-.76,2.26-.18-.86-.04-1.69.05-2.18.15-.8.55-1.68.79-2.16.61-1.22,2.76-3.02,2.76-3.02l3.16-1.43s1.01.51,1.44.56c1,.13,2.42,1.08,3.07,1.51,1.31.86,2.32,2.43,2.8,3.48,1.23,2.7.87,6.52.49,11.85-.32,4.53-1.34,9.94-2.44,12.65-.73,1.78-1.42,3.82-2.79,5.22-.82.84.19-2.27.31-4.12.03-.45.07-1.96-.07-1.59-.47,1.18-.84,2.03-1.09,2.6s-1.18,2.43-1.4,1.88c-.3-.76-.57-2.6-.82-3.55-.5-1.94-2.23-5.26-3.2-6.89-1.08-1.81-3.34-5.36-4.58-7.05s-4.48-4.85-5.47-6.79c-.93-1.84-.55-3.46-.31-4.58.22-1.04,0-1.61-.37-2-.89-.92-3.24-2.33-4.32-3.1-1.31-.93-6.25-4.4-4.65-4.27,1.42.12,3.24.34,4.4.18,1.62-.23,3.14-1.06,5.51-.92,1.38.08,2.61.91,3.02.47.2-.21.18-.52.18-.52l3.2,3.4,2.19,2.64-.51.53-.49.51s.09-.27-.57-1.07c-.14-.17-.56-.7-.93-1.11-.54-.61-1.45-1.43-2.19-2.11-.61-.57-2.44-1.72-3.86-1.75-1.31-.03-2.04.07-3.51.48-.92.26-2.93.71-4.17.46-.99-.2,2.7,2.16,3.71,2.72.9.49,2.73,1.41,3.68,1.78,1.1.42,3.35,1.22,4.52,1.4.53.08,1.85.5,2.14.05.14-.22-.23-.7-.43-.86-.67-.56-2.7-1.64-3.63-2.16-2.18-1.21-5.23-2.05-4.09-1.96.92.07,1.47.31,3.12.94,1.45.55,2.91,1.53,3.38,1.86.49.34,1.67,1.17,2.03,1.45Z"/>
  <path class="cls-1" d="M126.7,219.89c.54-.19,1.15-.45,1.06-.23-.13.31-1.75.77-2.6,1.4-.96.71-1.19,1.77-1.23,2.06-.1.8-.15,1.31.09,1.92.2.51.61.47.83.4.48-.14,1.21-.76,1.73-1.27.44-.43,1.63-1.78,2.07-2.39.39-.54,1.45-1.94,1.93-2.57.62-.82,2.2-2.79,2.86-3.58.71-.85,1.98-2.52,2.42-3.72.35-.96.98-5.45.11-4.72-.58.49-2,1.39-3.2,1.8s-3,.75-4.41,1.71c-1.02.7-3.33,2.33-4.12,3.32-.7.88-2.15,3-2.52,4.03-.29.82-.66,3.18-.68,3.99-.02.9.14,3.52.28,4.22.22,1.09,1.03,2.92,1.03,2.92l-1.25,1.62-1.72-1.25-.96-1.75s.17-5.53,1.43-9.18c1.13-3.26,3.14-5.06,4.58-6.52,1.19-1.2,3.94-2.96,5.65-3.72.68-.3,2.82-.76,3.58-1.11s2.54-1.38,3.24-1.87c.58-.41.51,2.99.51,2.99,0,0-.05,2.61-1.09,5.07-.63,1.5-2.51,3.62-3.75,5.06-.96,1.12-2.83,3.11-3.44,5.31-.24.86,2.17-1.35,3.44-2.07s3.53-1.87,5.3-2.44c1.11-.36,4.52-1.27,5.99-1.84,2.23-.87,5.71-2.32,5.31-1.36-.34.8-.72,1.21-1.55,2.26-1.03,1.3-3.18,3.7-4.37,4.76-1.44,1.3-4.31,4.02-6.06,4.86-3.93,1.89-3.52,1.96-6,4.18-.47.42-1.88.94-2.52,1.21-.56.24-2.23.83-2.23.83l-1.59,1.28-2.33-2.45-1.55-2.31,2.54-1.38,2.45-.4s-.95,2.58-.6,2.18c.81-.9,1.62-2.35,3.68-4.11.93-.79,2.89-2.22,4.06-2.86,1.1-.6,3.82-1.78,5.07-1.82s-3.81,2.02-5.05,2.77c-1.05.64-3.12,2.14-4.02,2.94-.78.7-2.95,3.31-2.63,3.14,1.5-.79,4.03-2.79,5.6-3.67.85-.48,3.37-1.52,4.39-1.89,1.97-.71,4.56-1.9,5.68-2.81,1.52-1.23,3.68-3.35,5.04-5.51.35-.56-2.91.94-3.88,1.29-1.54.55-4.65,1.42-6.17,2.03-1.28.52-4.39,2.1-5.54,2.94-1.35.99-2.74,1.97-4.01,3.33-1.03,1.09-1.61,2.05-1.61,2.05l-4.9,1.92.69-3.15s.38.72.48.88c.17.28.52-.12.64-.43.18-.49.03-1.89-.01-2.41s-.05-1.53,0-2c.12-1.01.48-2.14,1.36-3.8.82-1.53,1.89-2.82,2.6-3.62,1.77-2,7.64-7.16,8.63-7.56.57-.23-3.01,3.67-4.53,5.19-.57.58-3.26,2.91-3.98,3.92-.44.62-1.85,2.27-1.25,2.25.06,0,.14.02.53-.11"/>
  <path class="cls-1" d="M170.13,171.36c-2.07.53-4.31.81-7.14,3.04-1.48,1.17-3.82,3.19-5.14,4.43-.59.56-1.56,2.4-1.56,2.4l-.51-1.75.34-1.79s0,.39.14.19c.41-.54,1.29-2.02,1.76-2.69,1.5-2.16,4.19-7.1,5.58-9.33.9-1.45,2.87-4.15,4.07-5.47,1.1-1.22,6.01-5.57,5.63-3.91-.61,2.7-1.07,3.74-1.56,4.95s-1.38,3.39-2.1,4.45c-.83,1.22-4.07,4.32-4.07,4.32l-.13-1.4.23-.18s.88-.62,1.26-.95c.96-.83,2.03-2.27,2.49-3.03.92-1.51,1.61-3.57,2.11-4.76.2-.48.81-2.53.34-2.14-.7.57-2.14,1.84-2.84,2.56-.41.42-1.58,1.59-2.22,2.54-.42.61-.85,1.22-1.15,2.05-.2.57-.48,1.31-.17,1.26.53-.08,1.01-.41,1.29-.65s.88-1.08,1.03-1.03c.32.1-.62,1.19-.89,1.52s-.83.71-1.04,1.08c-.17.3-.67,1.22-.37,1.47.08.07.4-.09.4-.09l-.33,1.75s-1.55,1.48-2.07,1.91c-.98.83-3.93,3.32-3.19,3.03.96-.38,1.56-1.34,5.18-3.15,1.26-.63,10.03-2.76,12.23-2.61.7.05-3.07.89-3.79,1.09,0,0-2.58.56-3.81.88Z"/>
  <path class="cls-1" d="M161.78,184.09c-.31.75-.76,1.53-.7,2.31s.09.95.15,1.16c.01.04.06.18.06.18l-.72.4-1.49-4.32.46-1.37s3.33-2.54,4.48-3.31c1.23-.83,3.82-2.07,5.33-2.37.83-.16-1.28.83-3.12,3.47-.95,1.36-2,4.61-2.47,6.21-.51,1.73-.93,2.1-.93,2.1l-1.05.03-.26-.69s.8.01,1.1-.63c.53-1.12,1.13-3.13,1.68-4.47,1.49-3.62,2.76-4.35,1.39-3.78-.6.25-2.35,1.39-2.96,1.9-.92.78-2.98,2.07-3.04,3.18,0,.18.19,1.17.48,1.18s.93-1.13,1.16-1.44c.26-.36.92-1.22,1.1-1.18.26.06-.45,1-.64,1.45Z"/>
  <path class="cls-1" d="M90.62,2.26c-.91-.71-2.52-1.77-4.72-2.14-3.29-.54-5.95.78-8.21,1.91-2.5,1.25-4.14,2.69-6.07,4.39-.84.74-2.4,2.11-3.94,3.94-.88,1.05-2.85,3.53-5.62,10.01-2.74,6.4-1.87,6.45-4.16,10.91-1.66,3.24-2.72,5.29-4.72,7.76-1.34,1.65-2.46,2.69-3.6,4.95-1.11,2.2-1.49,4.07-1.63,4.89-.21,1.26-.24,2.34-.22,3.15.62-.84,1.24-1.69,1.86-2.53-.11-1.11.03-1.98.17-2.53.49-1.98,1.73-3.37,2.7-4.44.33-.36.61-.65.8-.83-.25.7-.58,1.55-1.02,2.52-.17.38-.92,2.01-2.02,3.77-2.07,3.31-2.81,2.99-4.39,5.57-1.88,3.07-2.35,6.03-2.53,7.2-.21,1.36-.24,2.52-.22,3.37.82-.52,1.65-1.05,2.47-1.57.07-.97.26-2.37.84-3.94.86-2.3,2.34-4.36,2.64-4.22.34.16-.72,2.98-.96,3.6-1.15,3.06-1.59,4.02-2.53,4.56-.49.28-.96.38-1.3.43l-1.18,1.15c-.11.75-.2,1.41-.28,1.97-.29,2.14-.44,3.2-.51,4.27-.11,1.65.01,2.09,0,2.89,0,.25-.01.54-.06.88-.06.45-.15.78-.33,1.39-.51,1.67-.72,2.19-.47,2.56.05.07.15.21.3.45.08.13.18.31.29.58.37.9.44,1.72.44,2.28.58.32,1.16.64,1.74.96-.15-.61-.35-1.62-.34-2.87.02-2.09.6-2.51,1.91-6.97.55-1.87.68-2.61,1.46-3.43.96-1.01,2.12-1.33,2.59-1.46,3.69-1.06,8.78-3.41,11.47-5.01.72-.43,4.17-2.51,7.48-6.41.81-.95,1.43-1.8,1.86-2.42.42.77.82,1.63,1.18,2.59,1.25,3.29,1.47,6.32,1.41,8.55.46-1,.95-2.42,1.07-4.16.29-4.41-2.07-7.63-2.84-8.6.2-.35.4-.73.59-1.15.3-.67.52-1.3.68-1.86.22.34.56.87.98,1.5,1.68,2.49,2.54,3.34,3.32,4.56.66,1.03,1.47,2.61,1.91,4.92.45-.44.95-1.04,1.41-1.8.19-.32.35-.63.48-.93.28.18.56.36.84.53.2.12.39.25.59.37-.66,1.12-1.56,2.72-2.5,4.72-1.17,2.46-1.75,3.69-1.91,4.95-.13,1.03-.27,3.89,2.81,7.59.09.11-1.05.78-1.18.83-.57.22-1.21.24-1.8.13-.8-.15-1.53-.51-2.24-.9-3.96-2.21-12.82-11.69-13.06-11.93-.48-.48-.86-.86-1.06-1.06-.37.21-.74.42-1.12.63.68.75,1.57,1.72,2.63,2.82.78.81,1.54,1.58,2.54,2.57,2.74,2.71,4.11,4.07,5.48,5.22,3.04,2.56,4.42,3.12,5.24,3.38,1.16.38,2.97.94,4.33.02.84-.57,1.27-1.53,1.45-1.94.35-.79.41-1.44.49-2.43.08-.99.05-1.84,0-3.12-.07-1.49-.15-2.09,0-2.13.21-.06.65.91.9,1.46.44.98.74,1.9,1.07,3.21.37,1.5.7,2.84.39,2.98-.28.13-.77-.9-1.24-.79-.45.11-.37,1.17-.67,2.64-.5,2.39-1.56,3.71-1.24,3.94.19.13.71-.18,1.01-.56.62-.77.29-1.73.62-1.86.24-.09.71.31,1.18,1.07,1.1,1.75,1.03,3.44,1.18,4.84.14,1.27.54,3.1,1.8,5.29.07-1.04.1-2.19.06-3.43-.04-1.03-.12-1.98-.22-2.87.93.94,1.98,2.2,2.92,3.82,1.98,3.43,2.43,6.72,2.53,8.66.39-.51.79-1.01,1.18-1.52-.17-.92-.41-2.32-.56-4.05-.41-4.68.32-5.65-.39-8.38-.46-1.76-1.28-3.09-2.92-5.74-1.37-2.2-2.69-3.9-3.66-5.06.6.42,1.47,1.04,2.53,1.8,2.44,1.75,2.7,1.98,2.87,2.14,1.46,1.38,1.88,3.15,2.31,5.17.84,3.95,1.48,7.67,1.97,11.02l.9-.9c-.13-.64-.26-1.62-.17-2.81.09-1.2.37-2.01.56-2.64.81-2.69.96-5.17,1.07-7.03.15-2.57-.14-2.89.28-4.27.63-2.07,1.67-2.63,1.97-3.6.49-1.63-1.08-4.53-9.79-10.12-.92.24-2.44.49-4.11,0-.33-.1-.94-.3-2.76-1.52-1.71-1.14-3.18-2.12-4.89-3.82-.27-.27-1.47-1.48-2.81-3.32-1.74-2.4-2.96-4.12-3.15-6.52-.09-1.11.08-2.04.22-2.64-.9-.75-1.8-1.5-2.7-2.25-.66-.51-2.53-2.12-2.98-4.78-.52-3.06,1.13-5.82,2.47-6.69.23-.15.7-.44,1.12-.28.7.27.73,1.56.73,1.63-.3,0-.85.03-1.41.34-1.37.76-1.65,2.58-1.52,2.64.06.03.22-.29,1.01-1.18.61-.68.78-.78.96-.84.43-.15,1.02-.12,1.41.22.22.19.3.45.45.96.08.27.38,1.25.17,1.35-.16.08-.41-.42-1.18-.9-.46-.28-.69-.42-.96-.39-.8.09-1.4,1.62-1.35,2.87.01.35.03.84.34,1.35.53.89,1.37.85,1.63,1.46.17.39.1,1.06-.9,2.25-.68,1.11-.24,2.42.62,2.81.63.29,1.49.07,2.08-.56,1.17-2.82,2.64-4.79,3.71-6.02,1.74-2,2.72-3.12,4.44-3.66.85-.27,1.5-.27,4.56-.96.72-.16,1.3-.3,1.69-.39.71-.9,1.42-1.8,2.14-2.7,1.4-.85,2.88-1.84,4.39-2.98,2.84-2.14,5.16-4.34,7.03-6.35-.35,1.16-1.33,3.85-3.94,6.13-3,2.63-6.31,3.1-7.48,3.21-.71.9-1.42,1.8-2.14,2.7.71-.16,1.64-.41,2.7-.79.5-.18,1.53-.57,3.04-1.35.58-.3,2.7-1.4,4.16-2.53,1.04-.81,3.37-2.89,4.95-7.25.57.21,1.4.6,2.14,1.35.56.57,1.53,1.8,1.74,4.95.29,4.15-1,7.83-1.97,10.01-.57.06-1.28.21-2.02.56-2.35,1.11-3.25,3.39-3.49,4.05.28.02.56.04.84.06.5-.81.82-1.45,1.01-1.91.1-.23.18-.44.39-.62.33-.28.65-.24,1.46-.34,1.01-.13,1.28-.29,1.35-.17.11.2-.7.61-1.63,1.74-.79.97-.98,1.62-1.52,1.63-.31,0-.43-.21-1.07-.34-.35-.07-.64-.07-.84-.06-.46,1.47-.33,2.62-.22,3.21.06.33.18.98.56,1.74.45.89.77.98.9,1.63.13.64,0,1.46-.51,1.91-.32.28-.51.18-1.01.39-.71.31-.94.79-1.97,2.14-.76.99-1.14,1.49-1.35,1.63-1.11.75-2.53.5-3.43.34-2.2-.39-3.36-1.48-3.6-1.18-.18.22.29,1.03.96,1.46.48.32.97.37,1.35.39,2.43.18,3.73-.31,3.94.11.17.33-.48,1.02-.79,1.3-.15.13-.39.34-.73.45-1.14.36-2.29-.78-2.47-.56-.11.13.16.71.67,1.01.8.47,1.7-.03,1.86.28.08.16-.14.34-.55,1.03-.38.63-.35.74-.63,1.21-.5.84-1,1.17-1.12,1.36-.42.65,1.33,3.04,9.79,10.12.49-.92.97-1.84,1.46-2.76-.41-.41-.82-.82-1.24-1.24-.07-.53-.19-1.33-.34-2.31-.62-4.1-1.05-6.13-.84-6.19.16-.04.62,1.03.84,1.63.33.88.25,1.09.56,1.46.52.62,1.13.48,1.29.96.13.36-.19.51-.45,1.35-.34,1.07,0,1.35-.39,2.08-.32.59-.67.65-.67,1.01-.01.51.65.94,1.24,1.24.43-.54,1-1.39,1.41-2.53.45-1.27.5-2.39.45-3.94-.16-4.49-.95-4.81-.67-7.31.25-2.21,1.08-3.83,1.46-4.56,1-1.91,2.25-3.19,3.09-3.94-.09-.66-.19-1.31-.28-1.97.02-.8.09-2.02.28-3.49.2-1.5.43-2.58.51-2.92.33-1.56.64-4.12.56-8.49.33.91.61,1.92.79,3.04.85,5.25-.98,9.64-2.14,11.87.09.66.19,1.31.28,1.97.37-.43.9-1.09,1.41-1.97,1.03-1.78,1.72-4.01,1.69-9.34,0-1.33-.07-4.82-.9-10.07-.61-3.88-.91-5.81-1.63-7.7-1.98-5.22-5.21-8.35-6.64-9.73-1.07-1.04-2-1.76-3.04-2.36-.81-.48-2.19-1.27-4.16-1.63-1.52-.28-2.85-.2-3.82-.06Z"/>
  <path class="cls-1" d="M85.36,32.97c.02-.11.57,0,2.9.03.74.01,1.13,0,1.72.14.32.07.38.12,1.49.51,1.12.4,1.08.36,1.68.58.39.14.95.37,1.62.66.43.19.79.36,1.08.5-.04.23-.12.57-.34.93-.11.18-.24.33-.34.44-.35-.11-.87-.28-1.48-.53-.79-.31-1.24-.54-1.91-.84-.84-.38-1.46-.61-2.39-.97-2.64-1.01-4.06-1.27-4.03-1.45Z"/>
  <path class="cls-1" d="M85.19,37.13c.11-.09.63.69,1.69,1.24.79.41,1.52.49,1.94.53,1.63.17,2.6-.37,2.81,0,.16.28-.26.8-.48,1.07-.18.22-.93,1.15-2.02,1.12-.69-.02-1.14-.4-1.93-1.07-.69-.58-1.08-1.16-1.39-1.63-.06-.09-.76-1.15-.62-1.27Z"/>
  <path class="cls-1" d="M93.69,47.38c.12-.06.27.03.33.06.42.24.35.7.71.93.1.06.39.06.96.05.51,0,.73-.04,1.05.07.38.13.44.29.45.33.05.15-.02.32-.08.4-.33.44-1.62.21-2.53-.38-.65-.42-1.15-1.05-1.04-1.31.05-.12.15-.17.15-.17Z"/>
  <path class="cls-1" d="M110.33,90.62c-.23-.3-.59-.7-1.15-1-1.02-.56-2.03-.42-3.08-.29-3.33.43-5,.65-5.8.72-2.31.2-2.63,0-3.49.45-.67.35-1.21.86-2.52,2.77-1.31,1.9-1.26,2.17-2.23,3.52-.71.98-1.57,1.84-3.29,3.55-1.47,1.46-1.07.94-3.53,3.29-.32.31-1.4,1.17-3.56,2.89-.65.52-1.11.84-1.58.72-.66-.18-1-1.19-1.5-2.69-.34-1.01-.44-1.59-.57-1.58-.11,0-.18.38-.32,2.15-.18,2.2-.12,2.27-.25,2.71-.44,1.51-1.71,2.75-2.15,2.56-.27-.12-.11-.71-.12-2.58,0-1.26-.02-2.98-.24-3-.23-.03-.49,1.87-1.36,4.73-.58,1.88-.86,2.82-1.22,3.44-1.02,1.79-1.93,1.79-6.66,5.3-1.42,1.05-1.91,1.48-2.22,1.29-.69-.43.35-3.41,1.43-6.45,1.55-4.36,2.81-6.72,2.01-7.45-.6-.54-1.72.38-2.29-.14-.9-.82,1.21-3.74,2.22-7.23,1.65-5.74-.24-11.04-.5-11.03-.18.01.18,2.73-.72,6.73-.47,2.07-1.43,5.17-2.01,5.09-.56-.08-.69-3.08-.43-5.3.06-.53.29-1.52.72-3.51.43-2,.55-2.35.64-3.25.14-1.27.25-2.3-.07-3.49-.52-1.94-1.96-3.46-2.29-3.29-.26.13.41,1.35.64,3.51.05.42.13,1.35-.36,5.23-.45,3.59-.62,3.59-.72,5.37-.15,2.74.15,4.4-.07,4.44-.23.04-.79-1.67-1.07-3.37-.44-2.6-.11-4.4-.36-4.44-.21-.04-.77,1.26-1,2.79-.45,2.92.62,4.38,1.43,8.38.65,3.18.77,6.18.5,6.23-.16.03-.4-1-1.36-3.58-1.01-2.72-1.19-2.75-1.65-4.23-.92-2.97-.85-4.88-1.07-4.87-.24,0-.66,2.22-.21,4.66.36,1.98,1,2.51,1.93,4.8,1.1,2.7,1.41,4.88,1.72,7.09.17,1.19.89,6.34-.14,6.66-.52.16-.97-1.04-3.08-3.08-1.73-1.68-2.62-2.54-3.94-2.79-2.12-.41-4.03,1-5.3,1.93-1.12.83-.89.96-3.94,4.58-2.18,2.59-3.34,3.76-2.94,4.73.23.54.82.75.93.79,1.2.43,2.31-.72,4.08-1.58,0,0,1.79-.86,4.3-1.07,1.17-.1,3.75-.08,7.02,2.08.36-.21.72-.43,1.07-.64-1.53-1.31-2.96-2.03-3.94-2.44-2.05-.84-3.94-1.04-5.01-1.15-2.78-.27-4.21.12-4.37-.36-.16-.51,1.24-1.51,2.51-2.01,2.1-.82,4.08-.36,4.94-.14,1.59.39,2.67,1.08,4.44,2.22,1.1.7,1.97,1.37,2.58,1.86-.48.49-1.24,1.21-2.29,1.93-.58.4-1.01.64-1.22.76-2.05,1.2-3.56,3.02-3.82,3.34-1.75,2.14-2.39,4.28-2.67,5.25-.53,1.82-.57,3.2-.62,4.92-.04,1.24-.16,5.22.91,5.49.23.06.54-.06.72-.24.39-.4.19-1.16.13-1.43-.56-2.4-.07-5.77.01-6.31.22-1.5.68-2.76.86-3.25,0,0,.34-.93.77-1.78,1.57-3.12,8.13-7.11,10.78-8.77,1.82-1.14,4.05-2.54,6.88-4.58,3.24-2.34,3.66-2.93,8.31-6.45,3.13-2.37,4.05-2.8,6.4-4.77,1.13-.95,2.64-2.22,4.44-4.11,2.87-3,4.31-4.5,5.09-6.16.2-.43.77-1.72,2.07-2.92.11-.1.48-.43.92-.73,1.37-.92,2.56-.91,4.76-1.23,3.59-.53,4.44-1.13,5.97-.48.59.25,1.02.58,1.29.81.29-.18.59-.37.88-.55Z"/>
  <path class="cls-1" d="M46.94,83.43c-.42-.07-1.34,2.66-1.67,3.63-.85,2.52-.57,2.93-1.29,3.96-1.15,1.66-2.37,1.31-3.2,2.77-.69,1.21-.35,2.31-.14,4.35.22,2.23-.1,4.49-.14,6.73-.15,6.93-1.82,15.09-2.51,15.04-.3-.02-.47-1.63-.43-2.79.05-1.39.42-2.4.57-2.86.41-1.23.54-2.83.79-6.02.4-5.07-.02-9.16-.32-11.96-.09-.88-.19-1.6-.25-2.08l-1.43.36c.05.49.13,1.21.21,2.08.28,2.84.46,5.29.5,6.02.2,3.4-.43,7.46-1.07,10.6-.14-.87-.33-2.03-.57-3.38-.32-1.78-.49-2.67-.57-3.06-.78-3.54-1.3-4.2-1.08-5.95.11-.85.12-1.69.14-3.37.02-1.09,0-1.68-.29-1.79-.31-.12-.67.46-1.29,1-1.81,1.6-3.84,1.23-3.92,1.93-.06.55,1.16,1.2,1.86,1.58.73.39,1.14.45,1.6.93.46.48.62,1.02.69,1.29,1.77,6.25,2.01,9.26,2.01,9.26.55,6.94.7,5.67.98,10.58.24,4.22.1,4.74.43,7.38.4,3.26.99,5.55,1.58,7.81,1.21,4.64,1.84,6.98,3.51,8.33,1.52,1.23,2.55,1.23,4.09,2.02.17.09.53.27.85.64.59.68.66,1.52.69,1.83.3,3.34.97,6.64,1.46,9.96.21,1.4.31,2.11.44,2.79.45,2.5.93,5.09,2.14,8.24,1.12,2.92,1.68,4.37,2.59,5.39.49.54,1.07,1.07.92,1.48-.24.62-1.85-.02-4.37.64-1.36.36-2.24.9-2.55.55-.21-.24-.03-.76.17-1.18-.64.29-1.58.74-2.68,1.37-1.56.9-2.64,1.54-2.53,2.05.09.42.95.7,2.61,1.15.61.16.86.21.86.29,0,.35-4.83.72-6.77.86-10.34.77-15.27.88-15.3,1.5-.01.2.9.53,2.73,1.18.78.28,1.39.44,2.61.75.78.2,1.09.26,1.49.21.91-.11,1.48-.71,1.73-.86,2.51-1.44,5.42-1.1,9.61-.59,1.27.15.89.19,3.35.59,4.77.79,8.4,1,11.82,1.22,2.79.18,4.78.29,4.8.14.05-.41-16.58-2.21-16.52-3.03.03-.44,4.78-.51,12.58-.33-.17-3.51-1.04-5.88-1.85-7.42-.53-1.01-1.08-1.78-1.02-2.96.12-2.16,2.15-3.12,1.72-4.3-.29-.79-1.27-.53-2.79-1.65-1.61-1.18-2.58-3-2.22-3.44.28-.35,1.16.43,2.51.14.65-.14,1.86-.62,2.15-1.5.49-1.52-2.22-2.8-3.83-6.45-.58-1.31-.82-2.48-.93-3.22-.72-.86-1.43-1.72-2.15-2.58-.26-.12-1.07-.53-1.47-1.47-.05-.11-.55-1.35,0-1.9.37-.36.99-.22,2.15.04.97.22,1.46.33,1.61.72.23.59-.49,1.35-.77,1.65-.54.58-1.16.84-1.52.97.72.86,1.43,1.72,2.15,2.58-.09-.72-.12-1.54.21-1.68.33-.15.86.47,2.15,1.83,1.53,1.62,2.3,2.44,2.76,2.76.54.38,2.07,1.45,3.94,1.29.42-.04,1.28-.17,3.8-1.97,1.77-1.27,1.8-1.53,3.29-2.65,3.2-2.41,4.97-3.74,7.12-3.78.44,0,1.37.04,1.62-.45.19-.37-.03-1.01-.43-1.29-.34-.24-1.08-.41-4.08,1.36-.61.36-1.81,1.09-5.3,3.65,0,0-1.14.84-3.37,2.15-1.09.64-1.66.93-2.44.93-1.1,0-1.91-.56-2.44-.93-.53-.37-1.69-1.17-2.01-2.58-.13-.59-.22-1.73.31-2.03.69-.39,2.05.89,2.27,1.1,1.37,1.29,1.19,2.3,2.01,2.58.73.26,1.46-.36,3.58-2.01,2.25-1.74,3.38-2.61,4.3-3.22,2.06-1.36,3.87-2.1,4.99-2.55,1.26-.51,2.64-.9,5.35-1.67,4.99-1.42,6.02-1.74,5.99-1.93-.05-.28-2.27-.18-4.05.07-.49.07-1.48.23-3.81.91-2.47.72-4.03,1.17-6.06,2.1-2.07.94-3.11,1.42-4.01,2.24-1.71,1.57-2.01,3.04-3.27,3.13-.91.06-1.66-.65-2.2-1.15-.46-.43-1.54-1.44-1.36-2.65.12-.77.69-1.23,1.48-1.86.51-.41,1.52-1.21,2.86-1.22.79,0,.82.29,1.5.29,1.4,0,1.75-1.22,3.37-2.01.48-.23.88-.47,4.3-.57,3.75-.12,7.49-.82,11.24-.72.19,0,.72-.02,1.22-.36.36-.25.57-.59.68-.82-.45-1.86-.9-3.72-1.35-5.57-.09-.35-.34-1.04-.98-1.48-.65-.44-1.39-.39-1.93-.36-3.04.16-6.25,2.13-6.92,2.55-1.56.98-5.84,3.81-8.29,5.31-.16.1-.64.39-1.33.51-1.52.27-3.46-.35-3.8-1.43-.21-.67.27-1.3,1.79-3.15,2.8-3.41,4.2-5.11,4.73-5.65,2.2-2.2,3.78-3.36,3.43-4.24-.1-.26-.36-.45-.6-.53-1.25-.39-2.82,2.07-5.78,5.59-.97,1.16-2.59,3.08-4.58,5.04-2.9,2.85-3.1,2.23-6.37,5.37-2.83,2.72-3.81,4.21-5.39,4.02-1.42-.17-2.4-1.59-2.99-2.45-.34-.49-1.52-2.2-1.36-4.37.25-3.37,3.57-5.31,2.86-6.37-.22-.33-.71-.4-1-.36-1.28.18-2,2.9-2.29,4.01-.36,1.36-.37,2.17-.72,2.22-.34.05-.84-.67-1-1.36-.2-.88.23-1.37-.11-1.79-.34-.42-.96-.15-1.18-.47-.36-.52.84-1.94,1.36-2.54,2.2-2.55,3.3-3.83,4.2-4.54,3.08-2.4,5.29-2.65,5.18-3.24-.14-.7-3.45-.92-6.45-.11-1.92.52-3.37,1.4-4.3,2.08.25.36.49.72.74,1.07.66-.79,1.37-1.11,1.73-.9.34.21.28.85.27.94-.13,1.19-1.64,2.16-2.1,1.86-.19-.12-.31-.54.1-1.91-.25-.36-.49-.72-.74-1.07-.03.05-.84,1.3-2.01,1.2-.81-.07-1.33-.78-1.41-.89-.9-1.24-.23-3.09,1.72-8.45,1.46-4.02,1.57-4.31,1.74-4.86.68-2.23,1.23-4.39,1.79-6.98,1.06-4.93,1.6-8.89,1.82-10.6.52-4.07,1.46-12.72.72-12.84Z"/>
  <path class="cls-1" d="M56.62,177.24c.39-.12.93-.33,1.49-.74,1.21-.89,1.41-1.94,2.01-2.96,1.46-2.52,3.48-1.76,5.16-4.3.91-1.37.34-1.62,1.24-3.53,1.14-2.42,2.53-3.05,4.68-5.35,2.55-2.72,4.61-6.1,4.2-6.49-.7-.67-8.79,7.26-9.26,6.78-.25-.25,1.6-2.91,4.2-5.06.73-.61.89-.65,5.06-3.44,2.16-1.44,3.24-2.17,3.63-2.48,2.98-2.42,4.15-4.63,4.58-4.39.35.19-.35,1.7-.76,3.63-.07.31-1.06,5.15.76,9.93.27.71,1.71,2.92,4.58,7.35,2.19,3.37,2.78,4.2,2.58,4.39-.41.38-3.68-2.28-6.11-5.06-1.11-1.27-1.75-2.01-2.29-3.25-.37-.84-.63-1.77-.95-5.63-.28-3.36-.28-5.05-.48-5.06-.14,0-.82,3.91-.9,4.2-.93,3.25-2.65,6.23-3.46,9.51-.52,2.08-.69,4.25-.5,6.39.18,2.04.71,4.06,1.1,6.07.28,1.46.43,2.2.81,2.58.86.85,2.09.63,5.3.48,1.69-.08,3.37-.05,5.06-.1,1.5-.04,3.67-.07,6.35,0,.29,3.28.57,6.56.86,9.84-.96.24-2.65.6-4.77.76-5.03.38-6.84-.82-12.51-.57-2.31.1-4.36.4-5.54.57-2.09.31-2.86.52-6.59,1.15-3.38.56-4.25.64-5.35.57-2.32-.13-4.52-.81-4.49-1.15.04-.41,3.32-.1,8.5-.95,2.55-.42,5.26-.89,5.35-1.81.07-.75-1.59-1.54-3.06-2.1,2.26-2.04,4.52-4.07,6.78-6.11-.73-.48-1.46-.95-2.2-1.43.2-.32.48-.81.76-1.43.86-1.93.86-3.34,1.05-5.25.2-1.93.6-3.85,1.06-5.73.66-2.65,1.72-5.18,2.77-7.69,1.04-2.49,1.82-5,2.12-7.7.03-.26-.02-.63-.29-.65-.1,0-.2.05-.28.1-.89.6-1.42,1.6-1.73,2.62-.31,1.02-.42,2.09-.67,3.13-.56,2.32-1.78,4.43-2.34,6.75-.1.4-.77,4.42-1.22,4.38-.27-.02-.47-1.34-.38-2.48.12-1.61.76-2.56.57-2.67-.22-.13-1.32,1.08-2.2,2.48-1.15,1.83-.8,2.18-1.81,3.44-.88,1.09-1.48,1.23-1.62,2.1-.05.33-.12,1.21.29,2.1.2.44.4.61.38.95-.02.54-.52.83-.95,1.24-.92.88-1.58,2.35-1.34,3.53.13.66.62,1.61,1.34,1.72.84.13,1.66-1.08,2.96-2.96.87-1.26,1.27-2.07,1.38-2.03.17.08-.51,2.22-1.28,4.13-.35.88-.62,1.43-.48,1.53.21.15,1.14-.79,1.91-1.62.73.48,1.46.95,2.2,1.43-2.26,2.04-4.52,4.07-6.78,6.11-.53-.05-1.45-.15-2.58-.29-5.14-.64-7.19-1.31-11.38-1.77-1.01-.11-2.6-.26-4.59-.33-.64-.09-1.28-.17-1.92-.26,2.65-1.19,5.3-2.38,7.95-3.57.68-1.19,1.36-2.37,2.04-3.56Z"/>
  <path class="cls-1" d="M80.5,171.89c-.17.06-.55-.62-.91-1.24-.24-.42-.54-.95-.77-1.67-.31-.93-.76-2.29-.24-3.63.46-1.21,1.63-2.18,2.12-1.96.34.15.38.88.33,1.29-.06.57-.32.84-.53,1.29-.12.25-.28.68-.22,2.35.08,2.3.44,3.51.22,3.59Z"/>
  <path class="cls-1" d="M87.73,140.15c.25-.08.61-.2,1.04-.36,0,0,.87-.31,1.54-.57,1.43-.56,3.56-3.2,4.91-4.62,2.45-2.59,2.91-1.81,4.82-4.13,1.54-1.86,1.16-2.27,2.86-4.39.85-1.05,1.96-2.04,4.2-4.01,3.48-3.07,4.11-3.28,4.48-3.08.51.28.43,1.33.32,2.46-.44,4.68-1.05,9.53-1.15,10.29-.4,3.28-.44,6.54-.21,6.57.22.03.87-3.03,1.26-5.95.41-3.17,1-9.95,1.35-12.72.04-.33.14-1.05.49-1.91.35-.85.78-1.41,1.29-2.05,1.76-2.22,2.64-3.33,2.86-3.2.23.13-.32,1.24-1.31,4.12-1.06,3.08-1.36,4.53-1.5,5.34-.52,2.92-.17,3.95,0,4.37.39.95,1.31,2.36,2.4,2.33.66-.02,1.12-.55,1.65-1.18,2.32-2.81,3.48-4.21,4.08-5.94.88-2.55.79-4.85.68-4.87-.09-.01-.18,1.58-1.04,3.69-.76,1.86-1.66,3-2.69,4.3-1.77,2.23-2.39,2.36-2.76,2.29-.48-.08-.77-.49-.94-.73-.25-.35-.93-1.47.1-5.83.35-1.46.78-2.84,1.42-4.3,1.28-2.9,2.13-3.24,2.54-3.33.66-.14.86.21,1.5.04,1.2-.32,1.21-1.72,2.29-3.01,1.94-2.31,5.57-2.16,5.73-2.15,1.89.11,2.98.99,3.22.64.29-.42-1.11-2.01-2.51-3.01-.66-.47-1.92-1.37-3.72-1.58-1.59-.18-2.72.28-2.86-.07-.11-.28.47-.81,1-1.07.64-.32,1.28-.28,1.79-.21,1.2.15,2.28.28,3.65,1,2.47,1.3,3.73,3.37,4.37,4.44,1.29,2.17,1.71,4.15,1.93,5.37.9,4.81.87,8.53.93,11.67.19,9.79,1.41,21.6,2.15,23.35.04.1.21.46.14.91-.13.86-1,1.29-1.62,1.77-1.51,1.16-1.98,2.96-2.24,3.96-.3,1.16-.16,1.96.24,4.35.29,1.74.6,3.54,1.1,6.54.88-.8,1.75-1.59,2.63-2.39-.55-.69-1.21-1.74-1.38-3.1-.21-1.61.42-2.42,1.34-5.3.72-2.27,1.23-3.87,1.24-5.83.01-1.91-.45-2.76-1-5.01-.6-2.47-.72-4.32-.95-8.02-.51-7.96,1.41-17.39,1.77-19.1-.33-.11-.67-.22-1-.33-.11.39-.28.99-.48,1.72-.4,1.52-.47,1.95-.61,1.95-.25,0-.55-1.35-.53-2.66.02-1.72.59-3.03.86-3.58.88-1.79,2.32-3.17,2.58-3.01.21.13-.46,1.24-1.38,4.15-.19.59-.33,1.08-.43,1.43.33.11.67.22,1,.33.2-.6.53-1.45,1.1-2.39.72-1.19,1.27-2.09,2.34-2.63,1.26-.63,3.07-.68,4.3.24.76.56,1.12,1.36,1.58,3.25.99,4.07.95,6.21.95,6.21-.04,2.01-.24,13.08.67,21.11,1.05,9.3,1.58,13.94,3.34,17.19.22.41,1.4,2.51.76,3.15-.41.41-1.3-.05-2.49-.25-1.94-.33-3.47.24-5.41.97-4.09,1.53-6.08,4.24-6.84,3.65-.38-.29.05-1.02-.43-2.47-.24-.73-.59-1.28-.87-1.66-.88.8-1.75,1.59-2.63,2.39.2,1.2.47,2.49.85,3.86.64,2.33,1.43,4.35,2.22,6.05.11.02.4.04.72-.11.37-.18.53-.48.57-.57-.32-.25-.93-.81-1.25-1.72-.12-.34-.28-.8-.18-1.29.17-.82.99-1.23,2.11-1.86.29-.17,1.4-.85,3.62-2.22,2.18-1.35,3.08-2.09,3.94-1.72.28.12.46.31.57.43.32.33.52.76.79,2.47.05.33.12.76.18,1.29.24-.1.48-.19.72-.29.04-.71.13-1.3.21-1.75.09-.46.17-.81.47-1.11.08-.08.38-.39.57-.3.19.08.18.49.11,1.7-.1,1.64-.13,1.58-.18,2.36-.07,1.2-.03,1.7-.21,1.75-.21.06-.55-.56-.61-.68-.39-.73-.41-1.48-.36-1.97-.24.1-.48.19-.72.29.02.47.06,1.23.14,2.18.08.92.16,1.51-.07,1.61-.23.1-.47-.4-1.04-.57-.4-.12-.93-.08-1.93.54-2.1,1.28-2.35,2.64-3.15,2.54-.89-.11-.96-1.8-2.16-2.08-.59-.14-1.16.13-1.56.39-.28.2-.71.48-1.29.68-.5.18-.89.22-1.05.25-.6.09-1.48.47-2.64,1.74,1.92,1.29,3.84,2.57,5.77,3.86.36-.22.95-.59,1.68-1.07,1.17-.77,1.61-1.09,2.01-.93.15.06.43.25.57.97.68-.23,1.36-.45,2.04-.68,1.26-.52,2.04-1.07,2.54-1.5.2-.18.43-.37.68-.32.46.09.84.97.58,1.4-.07.13-.16.15-.7.43-.33.17-.6.32-.78.42.19.26.38.53.57.79.7-.25,1.29-.27,1.65-.25.54.02,1.04.03,1.38.41.15.17.23.35.26.49.41.08.81.17,1.22.25-.56-4.15-.1-7.24.43-9.31.47-1.83,1.13-3.4.79-3.58-.37-.2-1.88,1.28-2.51,3.08-.21.61-.22.96-.3.96-.25-.01-.21-3.16.3-5.97.18-1,.4-1.81,1.07-2.29.52-.37.91-.25,1.22-.57.73-.76-.15-2.72-.48-3.46-1.07-2.46-1.59-4.84-2.63-9.6-.21-.94-.39-1.99-.72-5.97-.61-7.37-.76-13.21-1.05-22.35-.05-1.56-.13-4.15-.24-7.4l.76-1.74c-.4.51-.59.56-.69.52-.33-.12-.16-1.45-.13-1.74.04-.36.09-.66.13-.85.02-.13.1-.87-.16-1.39-.17-.34-.35-.54-.36-.54-.07-.07-.16-.16-.24-.27-.09-.12-.16-.23-.2-.33-.35.01-.78-.33-1.01.09-.16.29-.28.77-.44.81-.37-.03.02-4.97-.29-10.6-.15-2.74.18-5.51-.14-8.24-.07-.55-.21-1.59.29-2.7.6-1.34,1.77-1.99,3.08-2.67,5.24-2.76,7.54-3.58,7.45-4.23-.07-.45-1.24-.62-1.95-.72-.64-.09-6.47-.83-10.44,3.3-.77.8-2.2,2.28-1.86,3.72.2.87.91,1.1,1,2.12.11,1.17-.69,2.12-1.03,2.53-.86,1.03-1.93,1.41-2.39,1.55.17.26.34.53.51.79.24-.12.58-.3.99-.5.95-.47,1.43-.7,1.58-.64.56.2.4,1.69.29,4.66-.12,3.11.19,4.39-.19,4.49-.09.02-.42.03-2.1-3.27-.84-1.65-1.46-3.04-1.87-3.99.44-.25.87-.49,1.31-.74-.17-.26-.34-.53-.51-.79-.69.18-1.83.37-3.16.08-.53-.11-.98-.28-1.36-.45.13,1.21.26,2.43.39,3.64.3-.24.66-.49,1.08-.74.53-.31,1.02-.52,1.45-.68.35.71.7,1.42,1.05,2.14.58,1.19,1.16,2.37,1.74,3.56-1.91-.91-3.51-1.21-4.66-1.31-1.23-.11-2.17-.01-2.39-.48-.32-.69,1.16-2.01,1.72-2.48-.13-1.21-.26-2.43-.39-3.64-.22-.16-.56-.46-.71-.91-.17-.51,0-.87,0-1.14-.01-.55-.77-1.63-5.2-2.47-1.76-.33-4.3-.67-7.45-.57-1.7,1.23-3.41,2.45-5.11,3.68,2.61,1.59,5.22,3.18,7.83,4.77.76-.48,1.72-1.04,2.86-1.62,1.03-.52,4.15-2.06,4.3-1.81.2.32-4.87,3.54-10.6,7.54-9.7,6.78-24.13,17.82-27.5,21.01-.22.21-1.26,1.2-2.86,2.2-1.19.73-3.17,1.77-3.34,1.53-.46-.64,11.91-10.33,20.25-16.62,7.15-5.39,13.09-9.58,16.9-12.22-2.61-1.59-5.22-3.18-7.83-4.77-15.28,10.54-30.56,21.07-45.84,31.61-.03.02-.3.4-.74.86-.67.71-.88.77-.86.86.17.73,13.59.21,15.69.47.28.03.89.12,1.26.58.26.33.13.51.36.82.47.64,1.69.74,2.54.42.36-.13.55-.31.62-.24.17.16-.62,1.28-1.15,1.96-.38.49-.65.78-2.2,2.39-1.27,1.32-1.66,1.72-1.77,2.44-.09.58.12.97-.1,1.15-.36.29-1.35-.35-2.1-.91.45,1.86.9,3.72,1.35,5.57Z"/>
  <path class="cls-1" d="M107.39,137.37c-.03.55-.09,1.75-.26,2.63-.41,2.14-1.43,2.45-1.33,4.03,0,.16.09,1.41.63,1.58.65.2,1.82-1.25,2.27-2.72.43-1.38.18-2.59-.15-4.21-.29-1.39-.8-2.93-1.01-2.89-.12.02-.09.52-.14,1.59Z"/>
  <path class="cls-1" d="M94.69,180.7c.75-.27,1.78-.74,2.77-1.62.87-.78,1.24-1.45,2.58-4.01,2.23-4.28,2.56-4.99,3.53-6.11,1.14-1.32,1.39-1.13,2.1-2.1,1.79-2.43,1.59-5.37,1.53-6.88-.32-8.23,1.94-16.35,2.58-16.33.28,0,.3,1.6.67,1.62.94.07,2.38-10.09,2.86-10.03.25.03-.28,2.74.48,3.06,1.16.48,4.55-4.92,6.49-8.5,2.48-4.58,3.41-7.72,3.63-7.64.26.09-.3,4.66-2.86,9.26-1.44,2.58-2.24,2.89-2.39,4.58-.12,1.33.56,3.23,1.91,6.97.65,1.81.94,2.45.86,3.53-.15,1.96-1.43,3.94-2.29,3.82-.74-.1-.71-1.69-2.01-5.25-.75-2.06-1.97-4.87-2.29-4.77-.33.1.32,3.28.95,5.54.78,2.75,1.16,4.12,2.1,5.16.52.57,1.35,1.28,2.1,2.67.34.62.54,1.16.67,1.53-1.94,2.07-3.88,4.14-5.83,6.21.81-1.92,1.75-4.28,1.53-4.39-.27-.13-1.8,3.22-4.97,7.74-2.65,3.78-7.08,10.08-9.65,11.56-.21.12-1.07.59-1.43,1.53-.28.71-.25,1.67.1,1.81.53.22,1.56-1.52,3.15-3.44,2.13-2.56,3.58-3.39,5.16-4.87,1.89-1.77,4.27-4.74,6.11-9.93,1.94-2.07,3.88-4.14,5.83-6.21.18.77.44,1,.66,1.06.58.17,1.2-.76,2.54-1.97.31-.28.96-.76,2.26-1.72.55-.41,2.56-1.87,5.41-3.26,3.82-1.87,5.17-1.67,5.85-1.47.35.11,1.03.33,1.34.95.42.87-.2,1.87-.29,2.01-.8,1.89-1.59,3.78-2.39,5.67,0-1.55-.13-2.82-.25-3.72-.18-1.35-.32-1.68-.61-1.9-.5-.37-1.33-.28-3.29.61-2.34,1.06-3.99,2.2-4.48,2.54-3.44,2.41-5.17,3.63-5.34,4.4-.21.97.21,1.41,1.93,5.67.59,1.47,1.05,2.67,1.34,3.44-.22.32-.45.64-.67.95-.06-.19-.17-.47-.35-.79-.23-.41-.36-.64-.52-.69-.6-.19-1.92,2.3-2.1,2.63-2.98,5.56-10.18,9.23-9.84,10.12.19.5.74.21,2.86,1.15,2.58,1.14,3.41,2.29,4.3,1.91.58-.25.51-.87,1.05-2.2.65-1.59,1.11-1.59,3.63-5.06,1.31-1.81,2.18-2.57,2.01-3.63-.04-.21-.09-.29-.43-1.38-.27-.87-.48-1.58-.62-2.06.22-.32.45-.64.67-.95.25.64.56,1.51.91,2.53,1.25,3.71,1.88,5.57,1.98,7.09.09,1.36-.05,2.16.57,2.72.64.58,1.64.5,2.58.43,1.32-.1,2.28-.54,2.79-.79.67-.32,1.7-.91,2.72-1.96,1.92,1.29,3.84,2.57,5.77,3.86-2.11,1.44-3.34,2.93-4.05,3.98-1.08,1.6-.91,2.1-.79,2.29.26.41.97.5,1.5.36.82-.22,1-.95,1.79-2.01.25-.34,1.46-1.91,3.29-2.86,1.26-.66,2.17-.68,2.51-1.5.19-.47.11-.95,0-1.29.97-.36,1.93-.71,2.9-1.07-.75.45-1.31.89-1.7,1.24-.57.5-.72.72-.69.95.03.35.42.69.81.72.48.04.77-.41,1.52-1.05.37-.31.87-.68,1.53-1.04.19.26.38.53.57.79-.44.24-1.04.59-1.72,1.06-.57.4-.65.5-.63.6.06.34,1.36.57,2.49.21.6-.19.51-.34,1.09-.48,1.02-.25,1.76.11,2.02-.26.06-.08.11-.23.05-.49.41.08.81.17,1.22.25,0,.52.02,1.09.1,1.72.04.36.1.69.17,1-.27-.05-.53-.1-.8-.14-.01-.13-.05-.32-.18-.48-.38-.47-1.19-.23-2.55-.07-2.18.25-3.05-.03-3.53.64-.04.05-.28.4-.17.67.09.2.37.35,1.22.38.91.03,1.18-.11,2.41-.26,1.32-.16,1.95.02,2.51-.5.15-.14.24-.29.3-.38.27.05.53.1.8.14.02.14.1.46.36.74.13.14.28.23.38.29-.43.35-.86.7-1.29,1.05-.14-.09-.36-.22-.64-.32-.68-.24-1.16-.13-1.97-.07-1.68.12-2.18-.18-2.46.21-.2.28-.17.76.06,1,.33.36.93.07,2.29.14.41.02.74.07.97.11l-.79.5c-.49-.05-1.13-.07-1.86.07-1.41.27-2.39.95-2.9,1.36-.53-.37-1.05-.74-1.58-1.11.28-.27.67-.69,1.07-1.25.48-.67.74-1.03.61-1.36-.13-.35-.65-.57-1.07-.5-.52.08-.71.56-1.43,1.4-.44.51-.84.88-1.11,1.11-.29-.29-.57-.57-.86-.86,1-1.23,1.95-1.94,2.65-2.36.45-.28,1.02-.57,1-.97-.01-.36-.5-.73-.97-.79-.5-.06-.95.25-2.08,1.36-.81.8-1.16,1.21-1.68,1.75-1.79,1.88-2.3,1.88-2.61,2.79-.39,1.15-.05,2.52.39,2.61.29.06.58-.45,1.68-2.08.68-1.01,1.25-1.82,1.61-2.33.29.29.57.57.86.86-.25.26-.61.65-.97,1.18-.27.39-1.28,1.89-.9,2.33.23.26.86.05,1,0,.61-.21.88-.62,1.79-1.72.21-.26.56-.67,1-1.18.53.37,1.05.74,1.58,1.11-.5.18-1.45.61-2.08,1.58-.42.65-.8,1.69-.47,1.97.07.06.29.18,1.43-.39,1.35-.68,1.41-1.04,2.44-1.61.66-.37,1.67-.8,2.9-1.33.33-.14.81-.34.9-.75.08-.37-.21-.73-.36-.9l.79-.5c.21.03.53.06.92.05.59-.02.97-.03,1.1-.26.16-.3-.21-.79-.26-.86.43-.35.86-.7,1.29-1.05.24.14.37.11.43.08.29-.12.08-1.17.21-1.54.19-.53,1-1.1,1.5-1.65-.05.61-.08,1.84.5,3.22.62,1.47,1.59,2.34,2.08,2.72-.69.79-1.38,1.58-2.08,2.36-.23-.39-.64-.58-1-.5-.36.08-.59.42-.64.72-.12.69.73,1.34,1.36,1.58.22.08.73.28.93.07.34-.36-.5-1.64-.64-1.86.69-.79,1.38-1.58,2.08-2.36l.72.14c-.3.19-.78.55-1.18,1.15-.2.3-.58.88-.64,1.72-.06.83.23,1.45.36,1.72.5,1.05,1.36,1.57,1.72,1.75-.19.27-.38.55-.57.82-.2-.22-.51-.53-.93-.82-.36-.26-.77-.55-1.15-.61-.78-.12-1.7.72-2.36,1.97-.68-.86-1.36-1.72-2.04-2.58.7-.29,1.24-.59,1.61-.82.69-.43.77-.59.79-.73.04-.43-.59-.84-1.07-.99-.85-.26-1.62.21-1.79.32.3-.54.6-1.07.9-1.61,1.38-.26,1.65-.47,1.65-.61,0-.28-1.08-.48-1.18-.5-.35-.06-.73-.13-1.17.03-.26.1-.72.34-.7.58.04.36,1.23.48,1.4.5-.3.54-.6,1.07-.9,1.61-.53.21-1.29.53-2.18,1-1.03.54-1.63.86-1.58,1.11.1.46,2.4.33,2.61.32.68-.04,1.24-.14,1.61-.21.68.86,1.36,1.72,2.04,2.58-.23.27-.61.65-1.15.97-.75.44-1.4.52-2.08.64-1.19.21-3.48.61-3.51,1.07-.03.49,2.52,1.03,3.04,1.15,4.29.91,6.77.13,7.45-.11,1.01-.35,1.91-.68,2.15-1.47.25-.85-.35-1.93-1.47-2.79.19-.27.38-.55.57-.82.36.17.84.44,1.36.82.35.26,1.04.77,1.58,1.54.93,1.33.95,2.79.97,3.69,0,.64,0,2.03-.38,3.2-.31.04-.67-.33-.98-.3.18-.62.3-1.35-.04-1.61-.35-.28-1.06.09-1.23.17-2.22,1.07-10.95,1.31-15.14.69-3.66-.54-4.12-1.76-11.89-5.94-5.42-2.92-9.99-4.9-12.89-6.09.22-.84.45-1.67.67-2.51.35.14.9.3,1.58.29,1.09-.03,2.38-.52,2.39-1.01.01-.64-2.23-1.18-3.16-1.38,1.73-.51,3.47-1.02,5.2-1.53.42.12,1.02.25,1.74.26,1.88.04,3.24-.73,3.84-1.07.81-.47,2.75-1.59,2.55-2.66-.15-.78-1.37-1.16-1.97-1.35-.99-.31-2.35-.39-2.53.05-.2.49,1.3,1.15,1.15,2.05-.09.52-.69.82-1.24,1.1-.27.14-1.37.69-2.67.38-.22-.05-.38-.11-.53-.18-.42-.2-.54-.38-.96-.58,0,0-.23-.11-.57-.2-.85-.23-2.21-.14-2.29.24-.08.38,1.17.98,1.98,1.36.62.29,1.15.48,1.5.6-1.73.51-3.47,1.02-5.2,1.53-.33-.13-.84-.29-1.48-.33-.82-.06-2.14.06-2.24.48-.07.28.39.82,2.91,1.96-.22.84-.45,1.67-.67,2.51-1.63-.63-3.37-1.27-3.44-1.12-.09.2,2.99,1.75,4.44,2.48,6.16,3.11,10.27,4.74,10.22,4.87-.05.12-3.49-1.05-7.26-2.53-4.64-1.82-7.03-3.05-7.16-2.82-.13.24,2.21,1.88,4.63,3.25,4.47,2.53,5.57,2.1,10.17,4.3,4.86,2.32,4.94,3.42,9.74,5.3,2.21.86,3.95,1.32,6.02,1.86,0,0,3.47.91,8.36,1.29,0,0,3.64.28,4.82-1.11.11-.13.19-.27.19-.27.2-.34.27-.67.29-.91-1.27.25-3.01.51-5.11.57-4.8.13-8.75-.88-8.74-1,0-.05.55.03,3.53.19,1.61.09,2.42.13,3.01.14,4.42.11,5.69-.47,6.38-.88.5-.3.87-.62,1.1-.83.31-.04.67.33.98.3-.03.37-.12.89-.33,1.48-.28.74-.67,1.32-.95,1.65,0,0-1.88,2.13-7.21,1.35-.19-.03-.33-.05-.42-.07-.63-.1-.98-.17-.98-.17-1.15-.22-2.31-.37-3.45-.63-.28-.06-.48-.11-.64,0-.46.32.17,1.36-.2,1.9-.68.97-4.18-.43-4.37-.5-2.31-.94-3.81-2.13-4.44-2.61-2.58-1.96-4.95-2.73-8.74-3.98-4.39-1.44-6.15-1.11-10.56-3.12-2.37-1.08-3.25-1.8-3.69-2.83-.83-1.92.4-3.64-.72-5.19-.59-.82-1.49-1.11-2.54-1.4-5.46-1.46-9.17-1.33-9.17-1.33-3.05.11-7.4.52-12.63,1.86-.29-3.28-.57-6.56-.86-9.84Z"/>
  <path class="cls-1" d="M122.07,116.64c-.32-.16-1.24.91-1.79,1.89-.93,1.64-1.16,3.6-.84,3.72.15.06.53-.5,1.29-1.62.95-1.42,1.21-2.07,1.34-2.67.07-.34.25-1.19,0-1.31Z"/>
  <path class="cls-1" d="M16.64,183.47c-2.55,1.28-3.71,3.63-4.44,5.16-.6,1.27-2.91,6.11-1.29,11.97.24.87,1.92,6.95,5.25,7.44.91.13,1.84-.17,2.21.36.49.71-.58,2.12-1.34,3.39-2.07,3.49-2.93,7.95-2.2,11.56.53,2.64,1.83,4.42,2.1,4.77.67.9,2.64,3.52,5.83,4.68.71.26,1.8.56,1.81,1.05.01.47-.99.84-1.21.93-2.51,1.02-8.33,7.57-8.53,14.54-.07,2.56.53,8.47,2.67,11.56.18.26.91,1.27.57,1.81-.35.57-1.63.26-3.53.1-1.52-.13-3.06.02-4.58,0-5.43-.06-9.61-.11-9.93.86-1.27,3.76,54.77,25.48,60.09,28.82.34.21,1.92,1.26,4.28,1.83,0,0,1.48.36,3.06.38,5.84.09,42.31-8.3,53.1-10.5,5.4-1.1,4.14-.6,18.72-3.25,14.41-2.61,4.47-1.07,23.68-4.97,6.14-1.24,12.87-2.56,12.8-3.82-.02-.43-.8-.47-4.01-2.01-2.28-1.09-4.01-2.08-4.2-1.81-.08.11-.27.72-.06.77.3.07,1.17.65,1.11,1.14-.15,1.22-2.86,1.84-3.63,2.01-14.33,3.13-28.66,6.24-43.07,9.04-10.88,2.12-21.78,4.06-32.72,5.83,4.62-2.1,9.65-3.11,14.63-4.1,15.28-3.05,30.56-6.08,45.88-8.89,2.56-.46,5.11-.92,7.66-1.42,2.59-.51,5.33-.65,7.83-1.55.5-.18,1.08-.36,1.63-.67.43-.24.97-.66.67-1.41-.27-.67.61-.69.61-.69,0,0-.4-.19-.82-.44-.32-.19-.49-.29-.76-.62-.1,1.24-1.59,2.22-2.81,2.47-9.13,1.81-18.33,3.44-27.48,5.22-8.91,1.73-17.81,3.49-26.7,5.27-10.46,2.08-20.91,4.18-31.37,6.29l-.29,1.24c.73-.05,1.21-.13,1.48-.15,1.24-.09,1.53-.09,1.86,0,.36.1.4.33.41.5.02.42-2.21.99-4.84,1.07-.97.03-3.26-.11-5.69-1.42-2.87-1.55-4.18-4.16-4.68-5.16-2.29-4.55-2.26-11.15-1.95-12.33.02-.09.12-.41-.04-.68-.3-.55-1.39-.55-1.55-.55-.17,0-.25,0-.32.02-.15.05-.64.3-.71,2.53-.02.52-.02,1.56.14,3.37.11,1.15.21,1.81-.14,2.03-.33.2-.85-.1-.9-.13-.18-.11-.97-.65-.99-3.15-.02-2.26.59-5.98.34-6.17-.02-.02-.07-.03-.42-.17,0,0-.95-.38-2.47-1.04-.78-.34-1.85-.83-3.55-1.54-.64-.27-1-.41-1.37-.26-.67.27-.82,1.29-.95,1.93-.39,1.83.36,3.17-.33,3.7-.03.02-.29.21-.55.14-.32-.09-.49-.52-.62-1.12-.32-1.51-.09-2.79-.07-2.86.32-1.66.95-2.32.55-2.89-.11-.15-.37-.28-.89-.53-.85-.41-1.53-.61-1.53-.61-2.88-1.08-5.82-2.03-8.69-3.14-.32-.12-.65-.25-.97-.38-2.2-.89-3.29-1.35-3.25-1.67.08-.55,2.7-.48,10.7-.67,5.77-.14,6.31-.13,7.64-.29,3.77-.43,7.4-1.58,9.55-2.2,5.96-1.71,11.65-2.39,11.65-2.39,5.49-1.02,7.74-1.48,8.13-1.63.11-.04.21-.07.41-.13.77-.23.9-.2.98-.15.18.11.25.34.31.5.06.16.1.38.08.52-.07.48-1.02.68-2.18,1.04-.49.15-1.21.39-2.08.74-.04.01-3.11,1.04-5.8,2.84-.18.12-2.22,1.51-4.06,3.68-4.11,4.86-5.66,11.84-4.51,17.88.65,3.42,1.95,5.41,2.31,5.95.8,1.17,2.43,3.58,5.54,4.58,1.63.53,3.09.49,4.01.38l.29-1.24c-.96.05-3.1.03-5.25-1.24-2.42-1.43-3.41-3.61-4.11-5.16-1.95-4.31-1.39-8.37-1.1-10.27.67-4.41,2.58-7.37,3.1-8.14,1.79-2.65,3.73-4.1,5.3-5.27,0,0,3.94-2.93,8.48-3.25.23-.02.33.08.33.08.08.08.14.16.16.21.19.42.38.84.19,1.08-.08.1-.2.14-.24.15-1.08.3-2.09.8-3.14,1.18-7.27,2.61-12.53,9.03-12.4,16.92.04,2.35.52,4.69,1.4,6.87.06.16.15.33.31.37.2.06.4-.13.44-.33s-.02-.41-.09-.6c-1.67-5.04-1.42-10.28,1.07-14.55,1.44-2.46,3.51-4.12,4.39-4.81,1.36-1.06,2.77-1.84,3.38-2.18.24-.13.96-.47,2.39-1.15,1.46-.69,2.5-1.16,2.85-.81.07.07.07.1.32.73.1.25.2.46.26.58.38-.1.76-.19,1.15-.29-.21-.41-.47-.94-.72-1.59-.39-1.04-.57-1.87-.62-2.12-.06-.3-.1-.56-.13-.79-.16-1.39-.19-1.51-.11-1.61.36-.48,1.71-.01,1.89.05-.09-.24-.17-.47-.26-.71-.08,0-.3,0-.38-.14-.02-.03-.03-.07-.04-.16-.03-.18-.05-.27-.03-.33.05-.17.35-.23.42-.24,5.41-1.07,30.82-4.82,30.82-4.82.19-.03.58-.09.64-.31.18-.66-2.96-1.99-3.06-2.23-2.38.24-36.28,6.95-40.23,6.65-4.08-.3-6.09-1.58-14.64-5.02-5.37-2.16-3.88-1.38-11.19-4.27-9.97-3.94-10.06-4.34-14.6-5.76-6.14-1.93-9.22-2.89-10.03-3.01-.48-.07-2.26-.31-4.3-1.29-2.2-1.05-3.16-2.22-3.44-2.58-.2-.26-2.13-2.78-1.29-4.01.28-.4,1.05-.5,2.58-.72.23-.03.86-.06,2.13-.13,1.25-.06,1.56-.06,1.78.17.19.2.1.34.24,1.45.05.43.14,1.05.38,1.74.27.8.45.85.52.86.25.03.51-.35.63-.61.32-.7.02-1.36-.14-2.1-.29-1.28-.16-2.7.29-3.68.52-1.14,1.47-1.73,1.91-2.01,1.95-1.21,4.1-.9,5.16-.72,2.03.36,2.7,1.01,5.59,2.44,3.11,1.53,5.51,2.72,8.59,3.29,3.21.6,5.38.22,5.59,1,.18.68-1.44,1.12-2.58,2.72-2.35,3.3-.82,8.84-.14,8.88.17.01.32-.32.36-.39.3-.64-.27-1.12-.29-2.15,0-.31-.02-1.13.5-1.47.41-.27,1.05-.18,1.43.14.5.42.23,1.07.43,2.29.25,1.51,1.05,2.93,1.43,2.86.21-.04.37-.48.32-.82-.04-.3-.23-.51-.29-.57-.64-.73-.76-2.79-.14-3.22.48-.34,1.38.34,2.94,1.33,3.47,2.2,3.47,1.55,7.13,3.94,2.21,1.44,3.33,2.18,3.87,3.15.65,1.17.59,2.02,1.5,4.01.54,1.17,1.11,2.08,1.51,2.66-.04.87.37,1.68,1.07,2.06.92.51,2.21.2,2.91-.8-.7-.37-1.74-1.03-2.7-2.13-1.7-1.96-2.1-4.12-2.44-6.09-.14-.81-.5-3.26,0-6.52.31-2.04.91-5.6,3.58-9.1,1.94-2.53,4.13-4.06,5.69-4.69,1.19-.48,44.28-4.9,44.96-5.17.85-.34,1.81-1.21,1.72-1.45-1.74.05-50.41,5.17-52.16,5.22l.22,1.07c.26-.05.57-.09.93-.11.23,0,.9-.04,1,.09.21.27-1.66,2.05-2.14,2.53,0,0-2.6,2.56-3.93,6.15-.54,1.46-1.64,5.24-1.64,8.19,0,0,0,1.76-.38,1.81-.04,0-.08-.02-.44-.25-.44-.28-.3-.19-.43-.27-1.85-1.23-3.37-2.47-5.42-3.97-.32-.24-.66-.48-.87-.82-.5-.78-.24-1.82.16-2.66.73-1.51,1.89-2.81,3.31-3.7.31-.19.75-.36,1.01-.09.15.16.17.39.17.5,0,0,.05,2.68.52,4.44.08.29.16.52.25.52.16,0,.23-.79.4-1.63,0,0,.11-.81.74-2.41.89-2.28,2.3-4.31,4.01-6.05,1-1.01,1.96-1.74,2.74-2.27l-.22-1.07c-1.82.15-3.34.2-4.44.21-2.8.04-3.52-.14-4.08-.36-1.48-.57-2.37-1.57-2.94-2.22-2.24-2.58-2.5-5.64-2.58-6.73-.24-3.19.62-6.92,3.36-8.88.04-.03.08-.06.12-.09.09-.06.18-.12.24-.2s.09-.2.04-.29c-.04-.07-.12-.12-.2-.14-.86-.3-1.6.27-2.16.85-1.22,1.28-1.83,2.74-2.19,4.03-.08.3-.7,2.55-.41,4.98.13,1.07.19,1.6.44,2.34.26.79.58,1.35.41,1.49-.15.11-.57-.16-.84-.41-.16-.15-.54-.54-.81-1.67-.13-.52-.24-1.2-.38-2.54-.04-.36-.04-.48-.14-.63-.36-.53-1.18-.31-2.52-.46-1.62-.18-1.93-.67-2.33-.38-.93.68-.36,3.12-.29,3.44.24.99.59,1.69.29,1.94-.13.11-.33.08-.36.07-.38-.06-.62-.54-.84-1.16-.21-.59-.39-1.19-.5-1.81-.24-1.4-.25-2.92.18-4.32.22-.71.6-1.37.89-2.06.08-.18.15-.4.05-.58-.05-.09-.14-.14-.23-.18-.27-.1-.58-.03-.82.14-.23.16-.41.4-.55.65-.28.47-.52.96-.67,1.49-.7,2.4-.23,4.85.54,7.11.06.19.11.44-.05.55-.1.07-.23.05-.28.04-.29-.06-.59-.35-.96-1.19-.34-.78-.47-1.42-.48-1.46-.45-2.34-.36-4.98,1.05-7,.19-.27.52-.56.4-.93,0-.02-.01-.03-.02-.05-.05-.11-.11-.18-.18-.23-.14-.08-.4-.03-.61.07-.68.33-1.13,1.32-1.21,1.5-.35.79-.59,1.35-.72,2.29-.26,1.91.06,4.73.36,5.63.03.09.15.45,0,.78-.01.03-.15.31-.33.33-.33.03-.7-.79-.89-1.42-.36-1.2-.46-3.09-.38-4.1,0-.1.03-.37-.13-.54-.16-.18-.45-.21-.8-.18-.57.05-1.16.11-1.64-.27-.32-.25-.57-.59-1.2-.94-.1-.06-.22-.1-.37-.13-.77-.16-1.41.24-1.93.5-.75.37-1.93.51-4.3.79-2.36.28-6.03.1-9.88-1.29-1.66-.6-3.44-1.13-4.83-2.26-.85-.7-1.43-1.69-1.7-2.75-.14-.53-.2-1.06-.17-1.61.03-.66.05-2.91-1.28-2.03-.95.62-.25,2.54.02,3.33.04.11.08.23.03.34-.12.26-.57.16-.77.06-.49-.25-.61-.93-.68-1.43-.25-1.77-.02-3.63.71-5.27.13-.3.99-2.2,1.44-1.99.18.08.06.46.03.59-.43,1.43-.46,1.75-.32,1.97.04.07.15.21.5.31.49.14,1.54.23,4.3-1.5,3.41-2.14,3.24-2.81,4.71-3.04,1.16-.18,2.35.07,4.71.58.92.2,1.6.39,1.76.43,5.74,1.61,11.49,3.19,17.23,4.79,4.94,1.37,9.88,2.74,14.82,4.12-2.36,1.52-4.15,3.94-4.82,6.67-.67,2.73-.2,5.73,1.35,8.08.89,1.34,2.17,2.49,3.72,2.93,1.22.34,2.51.22,3.77.11,3.39-.32,55.24-5.71,58.63-6.03.24-.37,1.91-1.39,1.47-1.34-.8.08-50.71,5.19-51.15,5.25-2.46.31-5.08.59-7.37.88-1.52.2-3.1.39-4.58-.03-2.54-.72-4.33-3.19-4.8-5.79-.48-2.69.3-5.57,2.07-7.65,1.77-2.07,4.5-3.3,7.23-3.24-.05-.31-.04-.74-.09-1.05.01.07-7.49-.75-8.18-.9-5.32-1.16-10.52-2.71-15.72-4.27-5.07-1.52-10.21-2.79-15.31-4.21-3.51-.98-12.28-3.41-12.1-4.3.04-.18.43-.25,4.44-.36,4.72-.13,5.76-.09,7.74-.21,2.97-.19,3.15-.46,6.45-.79,1.93-.19,4.74-.39,8.22-.32-.74-.35-1.47-.69-2.21-1.04-4.42.36-7.98.71-10.46.97-2.8.29-4.35.48-6.7.57-3.27.13-5.95,0-7.74-.14-.34.09-.84.26-1.4.54Z"/>
  <path class="cls-1" d="M69.55,197.94c5.18,0,43.17-3.38,51.6-4.14l.11,1.37s-45.96,4.01-51.61,3.82"/>
  <path class="cls-1" d="M85.58,250.48c.98.51,2.4,1.76,4.16,1.92,3.11.3,9.79-1.3,13.02-1.91,4.36-.82,17.54-2.67,17.54-2.67l-.73-2.53s-12.48,1.85-18.22,2.71c-4.15.62-10.86,2.57-15.21,1.78,0,0-.74.59-.56.69Z"/>
  <path class="cls-1" d="M136.03,239.2c4.27-.68,19.64-3.15,20.72-3.54.16-.06.24-.16.25-.18.23-.41-.63-1.35-1.52-2.89-1.59-2.75-1.75-5.84-1.75-7.91,0-4.16.87-5.82,1.87-9.46.55-1.98,1.37-3.61.8-3.58-4.08.2-14.71,1.46-19.8,1.46-.37,0,.06-1.44.44-1.46,3.69-.18,13.69-.86,18.89-1.57.39-.05,1.52-.17,1.85.05.38.25.65.86.29,1.83-.52,1.4-1.39,3.75-1.83,5.42-.54,2.05-1.33,5.56-1.18,7.64.12,1.75.19,3.92,2.08,7.44,1.02,1.89,2.31,3.14,3.38,3.84,1.17.76,4.64,1.14,6.32,1.48,1.07.21,3.3.3,3.46,1.1.15.73-1.3,2.01-2.07,2.78-1.37,1.37-3.24,5.06-3.74,6.79-.58,1.99-1.02,4.32-1.02,6.3,0,1.45.07,4.42.51,6.68.5,2.56,1.82,4.73,2.38,5.7.22.37.54.58.64.67.29.29-.49,1.18-.62,1.4-.37.62-1.65.26-1.65.26,0,0,.29-.34.13-.88-.53-1.79-1.68-4.01-2.28-6.86-.85-4.06-.57-6.24-.41-8.46.16-2.21.76-4.67,1.64-6.79.33-.8.89-2.21,2.12-4.38.7-1.24-3.7-.14-5.11.07-6.07.93-24.32,3.28-24.32,3.28l-.19-2.7c20.09-1.92,25.93-2.87,25.9-3.34,0-.03-.06-.57-.43-.78,0,0-.15-.09-.36-.08-.65,0-19.55,2.43-25.2,3.15-.07-.83-.13-1.65-.2-2.48Z"/>
  <path class="cls-1" d="M137.28,209.11s8.2.02,9.7-.21c.33-.05-.97-.76-.97-.76l5.03,1.8s-1.42-.05-1.9-.05c-2.99,0-11.95.34-11.95.34l.09-1.12Z"/>
  <path class="cls-1" d="M87.35,256.71c1.1,1.63,2.22,2.82,3.09,3.63,1.79,1.68,2.21,1.38,5.32,3.37.81.52,0-1-.64-1.87-.8-1.11-2.25-2.24-3-2.99-.72-.73-3.59-3.65-2.74-3.06,1.85,1.28,3.64,2.89,4.81,3.9,1.56,1.34,2.81,3.27,3.69,4.57.58.86-.2-2.22-.51-3.15-.92-2.71-2.55-4.65-3.81-5.83-1.11-1.03-5.13-3.23-5.13-3.23l1.62-.49s2.26,1.27,2.93,1.81c1.17.95,2.88,2.43,3.67,3.71.68,1.1,1.76,2.77,2.44,4.91.17.55,1.55-1.26,1.9-1.6.69-.68,1.67-1.47,2.32-2.01.34-.29,2.02-1.63,2.51-1.8.45-.15-.08,1.4-.2,2.54-.06.56-.22,1.86-.38,2.49-.19.75-.37,1.39-.88,2.84-.31.91-.21,1.77-.21,1.77l-1.55-1.19s.84-.99,1.14-1.47c.28-.45.65-1.52.8-2.05.13-.46.19-1.21.29-1.77.06-.37.29-1.77-.11-1.48-.41.28-1.24.82-2,1.5-.77.69-1.49,1.22-2.58,2.84-.25.37-.67,1.29-.68,1.79-.02.77,1.14-.62,1.58-1.05.26-.25,1.25-1.2,1.51-1.31.37-.16-.68,1.41-1.03,1.88-.17.23-1.31,1.73-1.02,1.73.95.02,2.13-.63,2.13-.63l1.58,1.22s1.04.82,1.41,1.04c1.03.6,2.46,1.58,3.19,2.11,1.32.95,3.68,2.9,4.85,3.93,1.02.89,3.66,2.85,4.26,4,.17.32-1.5.29-1.86.33-1.98.2-5.45,1-7.32,1-1.63,0-4.58-.01-6.14-.62-2.5-.97-3.93-2.07-4.88-2.29-.71-.17-1.8.26-2.4.5-1.22.48-3.9,1.63-5.09,2.21-1.29.63-3.57,1.97-4.72,2.7-.67.43,0-1.67.04-2.23.03-.43-.8.2-.92.08,0,0,0-.01-.01-.03-.08-.34.55-1.66.55-1.66s0,0,.57-1.46c.3-.02.59-.03.89-.05-.42.79-.84,1.66-.71,1.74.03.02.1-.02.12-.03,1.2-.77,2.74-1.7,4.05-2.35,1.34-.66,3.52-.85,4.85-2,1.42-1.23,1.71-2.77,1.71-2.77l1.41-.17s.09.63.43,1.2c.78,1.29,3.51,3.1,4.7,3.69,1.66.83,5.42,1.1,6.46,1.1,2.37,0,3.6-.16,6.17.27,1,.17-2.11-2.26-2.84-2.9-1.41-1.25-4.22-3.25-5.92-4.42-.78-.54-3.09-1.66-4.09-1.97-.84-.25-2.75-.41-3.87.11-.55.25-1.31,1.17-.97,1.18.8.03,1.81.2,2.58.43.8.25,1.63.66,2.01.85.68.35,1.56.8,2.02,1.05.39.21,1.03.62,1.38.82.68.38,2.7,1.51,2.29,1.56-.37.05-.8-.22-1.17-.41-1.24-.64-3.39-1.76-4.59-2.2-.78-.29-2.26-.93-3.09-.9-.15,0-.57.05-.85.13-.35.09-.7.4-.7.4l-1.38.16s-.05-.64-.36-1.14c-.23-.38-.61-.51-.86-.45-.64.18-1.91,1.01-2.43,1.46-.51.45-1.77,1.6-2.36,1.9-.21.11.1-.56.23-.72.43-.53,1.36-1.28,1.93-1.68.83-.58,2.53-1.6,2.99-2.4.12-.21.27-.57.16-.75-.09-.14-.75-.08-.87-.06-.81.19-2.11.77-2.73,1.18-1.12.75-2.43,2.06-3.71,3.95-.67,1-2.01,4.11-2.01,4.11-.3.02-.59.03-.89.05.5-1.24.99-2.2,1.33-2.84,0,0,1.23-2.26,1.91-4.01.09-.23.13-.42.15-.52.03-.14.05-.31.06-.52,0-.22-.02-.36-.09-.46-.09-.13-.21-.18-.27-.21-.73-.33-1.72-.7-1.72-.7-1.12-.43-1.29-.46-2.15-.9-.24-.12-.8-.33-1.92-.77-.07-.03-.13-.06-.14-.12-.06-.3,1.48-.83,2.26-1.07,1.1-.33,2.03-.46,2.8-.57.59-.08,1.08-.13,1.42-.16.12.24.24.47.37.71-.44,0-.83.04-1.14.07-.66.07-1.17.18-1.47.24-.29.07-.56.14-.85.22-.35.1-.8.25-1.21.51-.32.2,1.02.76,1.44.97.49.24,1.84.66,2.45.77,1.31.23,3.49.67,3.96-.16.12-.21.13-.51.03-.71-.19-.38-.77-.44-1.5-.51-.82-.08-1.55,0-1.56-.08,0-.01.02-.02.03-.03.96-.55,2.55-.18,2.55-.18,1.01.23,1.44.53,1.92.27.05-.03.32-.18.33-.4.03-.41-.78-.79-.97-.85-.99-.3-4-.14-4-.14,0,0-.33-.61-.46-.79-.18-.25-.56-.82-.97-1.48-.35-.56-.58-1.01-1.02-1.92-.31-.65-.69-1.51-1.08-2.54.38-.1.76-.19,1.15-.29Z"/>
  <path class="cls-1" d="M158.01,175.21c1.16-3.19,2-5.9,2.57-7.88.39-1.35,1.89-6.58,3.1-13.85.75-4.44,1.03-7.99.53-7.74-.73.36-3.15,3.87-4.87,8.4-.68,1.79-1.73,4.3-2.2,7.26-.06.38-.64-1.14-.8-2.19.66-2.58,1.7-5.7,3.38-8.89.74-1.4,1.23-2.27,1.74-3.05.08-.12.41-.62.89-1.27,1.58-2.14,2.12-2.36,2.26-3.31.11-.71-.07-1.36-.19-1.82-.22-.82-.56-1.36-.67-1.54-1.03-1.78-1.06-6.01.55-6.8.41-.2,1.21.18,2.77.86.5.22.9.41,1.16.55-.49-.1-.76,0-.92.11-.54.39-.2,1.24-.48,2.86-.2,1.19-.55,1.71-.38,1.81.24.15,1.18-.88,1.77-1.85.4-.65,1-1.65.62-2.39-.16-.3-.43-.45-.61-.55-1.91-1.01-3.93-1.22-3.93-1.41,0-.14,1.13-.32,2.44-.19.97.09.98.25,2.15.43,1.4.21,2.13.08,2.82.43.35.18.8.55,1.15,1.38-.12.05-.25.11-.37.16-.02-.04-.06-.09-.1-.15-.45-.57-1.3-.78-1.42-.61-.18.26,1.24,1.69,1.55,1.5.12-.08.07-.4-.03-.75l.37-.16c.13.48.38,1.18.86,1.92.75,1.15,1.55,1.61,1.38,2.09-.14.4-.81.31-1.48,1.06-.2.22-.32.43-.39.58-.02,0-.05,0-.09-.01-.3-.03-.45.14-.65.07-.08-.03-.15-.07-.19-.1.51-.49.7-.96.78-1.26.07-.26.14-.68.04-.73-.09-.04-.21.25-.57.6-.6.6-1.21.72-1.22,1.13,0,.04,0,.07,0,.09,0,0,.02.02.03.04,0,.03,0,.06,0,.07-.08.11-.77-.06-.94-.5-.07-.18,0-.35.03-.45.17-.12.43-.31.73-.55.86-.67,1.29-1.02,1.3-1.3.03-.61-.91-1.33-1.78-1.33-.08,0-.33,0-.67.14-1.31.53-1.03,2.06-2.39,2.96-.52.34-1.1.49-1.09.78.01.17.21.29.38.37-.13.11-.33.23-.54.2-.62-.08-.84-1.36-.87-1.52-.06-.34-.12-1.02.21-1.88.1-.39.24-.93.38-1.57.28-1.27.3-1.55.12-1.77-.28-.37-.97-.48-1.29-.21-.09.08-.2.22-.24.72-.06.74.12,1.13.25,1.92.17,1,.08,1.48.23,1.51.1.02.3-.17.7-1.2-.46,1.72-.05,3.25.86,3.73.6.32,1.37.16,1.75.07.99-.22,1.65-.78,1.94-1.07.04.08.09.17.16.26.24.33.55.52.75.62.02.05.09.22.27.3.21.1.49.03.67-.18.26-.02.54-.01.84.03.03,0,.06,0,.09.01-.47,1.26-1.12,1.84-1.66,2.14-1.9,1.04-4.31-.3-5.34.8-.1.11-.17.25-.2.44-.24,1.38-.23,2.69-.38,4.68-.18,2.39-.26,3.93-1.34,9.31-1.35,6.73-2.06,10.16-3.71,13.4-.95,1.87-1.92,3.3-2.59,4.22Z"/>
  <path class="cls-1" d="M164.29,133.13c-.5-2.77-.87-4.98-1.11-6.41-.82-4.92-.89-5.79-1.68-7.27-.28-.52-.91-1.61-1.83-3.44-.92-1.83-1.25-2.64-.98-3.52.25-.82.99-1.58,1.52-1.49.48.08.52.82,1.01.87.54.06.81-.78,1.36-.76.54.02.92.84,1,1.02.93,2.04-.85,3.83-.81,7.08,0,.59.06.11.62,3.17.52,2.85.6,3.96,1.18,7.52.21,1.27.4,2.33.54,3.12l-.82.11Z"/>
  <path class="cls-1" d="M150.37,109.08s.92-1.42.97-1.51c1.2-1.74,2.67-3.57,3.7-5.04,2.35-3.34,3.22-5.25,3.25-4.93.07.69-.13.99-1.91,8.11-.96,3.82-1.82,6.47-3.58,9.51-.44.76-.61,1.24-.88,1.64-.02-.55-.03-1.1-.05-1.65.78-.93,1.13-1.51,1.42-2.1,1.04-2.11,1.12-2.33,2.09-5.59.29-.99.55-2.32.97-3.62.64-1.97.75-3.16.58-3.09-.37.16-3.2,4.22-3.98,5.19-.24.31-.46.63-.7.94,0,0-.45.56-.85,1.33-.04.08-.12.23-.1.43,0,.13.05.22.08.28.03.16.06.34.12.53.07.24.16.44.24.61.02-.18.05-.36.07-.54.07.03.17.06.29.05.37-.02.63-.34.8-.57.53-.71.85-1.4.9-1.5.38-.82.95-1.94,1.02-1.91.03.01-.04.26-.17.76-.04.16-.08.28-.13.45-.07.22-.16.48-.29.77-.34.8-.83,1.49-1.28,2.23-.05.08-.1.16-.14.24-.27.5-.39.95-.45,1.23-.16-.11-.33-.22-.49-.34-.51-.66-.99-1.27-1.5-1.93Z"/>
  <path class="cls-1" d="M156.95,82.38c.14,1.27.25,3.18-.07,5.44-.53,3.76-1.91,6.4-3.58,9.53-1.05,1.97-2.64,4.62-4.94,7.52.07.67.14,1.34.21,2.01.75-1.04,1.81-2.56,3.01-4.44,2.88-4.52,4.53-7.11,5.52-10.46.61-2.06,1.25-5.39.64-9.81-.26.07-.53.14-.79.21Z"/>
  <path class="cls-1" d="M18,182.91c-3.28-.77-6.31-2.35-9.29-3.92-.96-.5-1.77-.93-2.73-1.43-.11-.06-.44-.19-.42-.31.09-.42.93-.71,1.25-.85.68-.31,1.38-.56,2.07-.85,2.35-.98,4.89-1.78,7.44-1.89,2.46-.11,4.69.46,6.97,1.33,3.47,1.33,3.99,2.27,7.95,4.08,2.52,1.15,4.65,1.64,4.58,1.93-.01.06-.12.15-.5.14-1.44-.05-2.75-.33-3.04-.39-2.54-.48-2.09-.38-3.37-.75-1.14-.33-1.75-.57-2.58-1-.87-.46-1.08-.7-2.7-1.68-.98-.59-1.75-1.01-1.78-.97-.02.04.45.42,1.95,1.67.5.41.74.62.7.77-.1.34-1.38.25-2.02.2-1.32-.1-2.1-.34-4.19-.77-1.22-.25-1.82-.37-1.85-.3-.04.14,1.95.95,3.96,1.36,1.85.37,2.45.5,5.53.98,3.36.53,5.69,1.04,8.36,1.43.76.11,1.24.34.42.58-2.32.68,5.71-.49,8.12-.69-1.09-.17-2.71-.55-4.44-1.5-3.88-2.14-5.58-5.68-6.3-7.23-2.15-4.62-1.73-8.68-2.15-8.67-.33.01-.8,2.55-.5,5.44.49,4.73,2.73,7.42,2.01,8.02-.52.43-1.78-.94-5.01-2.58-3.74-1.89-6.6-2.38-7.2-2.47-1.46-.23-2.95-.31-4.41-.16-2.44.26-4.58,1.47-6.77,2.46-.92.41-1.84.83-2.76,1.24-.37.17-.79.34-1.08.63-.25.24-.18.47.1.69.68.56.98.62,1.84,1.09,3.03,1.63,5.94,2.86,9.02,4.24.25.11.5.27.6.52.16.44-.26.86-.64,1.13.52-.26,1.12-.26,1.68-.4.56-.14,1.15-.54,1.18-1.11Z"/>
  <path class="cls-1" d="M42.86,181.58c-.41-.71-.99-1.79-1.55-3.18-.68-1.65-.84-2.53-1.43-4.2-.21-.59-.95-2.66-1.81-4.2-2.14-3.79-5.81-5.6-8.59-6.97-2.61-1.29-4.36-1.6-5.16-1.72-1.44-.21-2.67-.17-3.53-.1,1.56,1.43,2.73,2.69,3.53,3.59,1.08,1.21,1.69,2.03,3.08,3.53.91.97,1.68,1.74,2.2,2.24.19.81.37,1.61.56,2.42-1.69-2.01-3.48-4.06-5.36-6.14-1.81-2-3.61-3.9-5.38-5.72-1.32.03-2.36.24-3.04.43-2.18.59-4.03,1.75-4.55,2.08-.45.28-.67.41-1.11.66-1,.57-1.49.85-1.58.78-.49-.34,1.22-4.74,4.95-7.72.42-.33.78-.59,1.05-.76-.9-1.07-1.65-1.72-2.2-2.12-.2-.15-.64-.47-.59-.56.04-.08.47.05.72.14.52.2.91.48,1.6,1.08.32.28.71.64,1.15,1.08.47-.25,1.19-.57,2.12-.72.96-.16,1.76-.09,2.29,0-.05.32-.11.63-.16.95-1.7-.25-3.45.23-4.93,1.1-1.96,1.16-3.7,2.98-4.75,5-.22.42-.51,1.04-.56,1.55-.01.15.29.04.43-.04.53-.3,1-.67,1.49-1.02,1.41-1.03,2.95-1.92,4.62-2.42,1.83-.55,3.78-.61,5.68-.44.76.07,1.51.17,2.27.15.18,0,.38-.04.46-.2.06-.13,0-.29-.08-.42-.29-.45-.77-.76-1.28-.94-.51-.18-1.05-.23-1.59-.24-2.8-.1-5.63.67-8,2.18.16-.4.49-.71.83-.97.86-.66,1.87-1.11,2.91-1.4.77-.21,1.57-.3,2.36-.42.33-.05,1.75-.16,1.71-.73-.02-.28-.84-.64-1.57-.74l.16-.95c2.38.53,3.82,1.51,4.68,2.29,1.55,1.41,1.57,2.26,3.44,3.63,1.18.87,1.39.65,3.63,1.96,2.48,1.45,3.07,2.2,3.44,1.96.67-.44-.31-3.54-1.91-6.11-1.41-2.27-2.52-2.86-4.15-4.63-4.21-4.55-5.62-10.05-5.4-10.17.13-.07.81,1.58,2.77,4.2,2.08,2.79,3.17,3.41,6.49,7.26,1.04,1.21,1.75,2.02,2.67,3.25,2.18,2.88,4.08,5.38,5.25,8.88.83,2.49.95,4.42,1.34,4.39.33-.02.58-1.44.57-2.67-.02-2.64-1.25-4.54-1.81-5.54-2.98-5.31-1.93-11.64-1.81-11.65.07,0,.11,2.11,1.15,4.97.54,1.47.85,1.8,2.48,4.97,1.93,3.74,2.45,5.14,2.67,5.06.44-.15-1.07-5.76-1.24-6.4-1.4-5.18-2.54-8.21-3.44-10.98-.94-2.91-2.11-7.18-2.89-12.68,1.63,2.41,3.26,4.82,4.89,7.23.17,1.69.45,4.21.86,7.26,1.63,12.17,2.47,12.94,2.96,12.99.44.04,1.12-.43,2.15-3.01.09.56.19,1.11.28,1.67-.45.61-1.11,1.56-1.85,2.78-.2.33-.33.56-.45.76-1.78,2.96-2.68,4.45-2.89,4.97-.68,1.68-.79,3.14-.84,3.99-.12,1.91.17,3.65.36,3.65.19,0-.07-1.84.76-4.2.44-1.25.71-1.31,2.1-4.01,1.06-2.06,1.45-2.99,1.53-2.96.13.05-.53,2.54-1.72,5.13-.42.93-.76,1.53-1.12,2.67-.19.6-.91,2.87-.5,3.08.48.24,2.77-2.25,3.82-5.44.05-.15.09-.28.12-.42.35-1.33.57-2.57.73-4.93.07-1.06.14-2.38.16-3.91.26.4.53.79.79,1.19.14,1.76.14,4.24-.48,7.11-.59,2.75-1.55,4.93-2.36,6.45-1.53.69-3.06,1.38-4.58,2.08Z"/>
  <path class="cls-1" d="M34.93,157.93c-.61-1.48-1.26-3.49-1.57-5.93-.22-1.77-.22-3.34-.12-4.63,1.16,2.59,2.29,5.63,3.19,9.07.45,1.7.79,3.33,1.06,4.86,1.11,1.97,2.23,3.94,3.34,5.92-1.95-8.03-3.78-13.97-4.69-16.41-.85-2.27-1.74-4.27-1.74-4.27-.45-1.01-.87-1.87-1.21-2.56.09-.55.22-1.44.31-2.55.19-2.23.62-7.17-1.09-12.4-.71-2.17-1.12-2.37-1.34-4.01-.36-2.74-.14-3.55-.86-4.49-.35-.46-.97-.96-1.38-.81-.43.16-.31.9-.86,1.19-.56.3-1.11-.25-1.43,0-.42.33-.1,1.76.67,2.91.92,1.37,1.78,1.31,2.86,2.53.77.86,1.01,1.69,1.56,3.33.87,2.55.97,4.67,1.04,6.09.07,1.61.03,3.81-.46,6.39-.94-1.74-1.85-3.06-2.51-3.95,0,0-1.93-2.03-2.74-3.79-.08-.17-.14-.33-.14-.33-.2-.6-.15-1.02-.19-1.5-.02-.29-.09-.72-.3-1.24-.4.18-.79.36-1.19.54.35.51.52.96.38,1.1-.15.15-.67-.09-.99-.37-.51-.44-.77-1.2-.58-1.35.21-.17.95.42,1.19.62.4-.18.79-.36,1.19-.54-.31-.74-.66-1.32-.98-1.76-.27-.37-.41-.46-.54-.74-.29-.64-.16-1.43-.16-2.11,0-1.95,0-3.91.11-5.86.07-1.16.12-2.4.52-3.51.14-.38.34-.75.62-1.04.17-.18.82-.78.91-1.67.04-.4,0-1.01-.38-1.24-.16-.1-.33-.1-.55-.09-1.12.08-2.02.52-2.2.61-.33.16-.77.41-1.26.77l.33.43c.96-.56,1.79-.77,2.34-.86.4-.06.81-.13.91.05.16.27-.62.85-1.15,1.53-1.51,1.98-.76,4.74-1.1,4.77-.22.02-.17-1.21-1.1-2.53-.58-.83-1.12-1.08-1.1-1.62.02-.59.67-1.05,1.19-1.34-.11-.14-.22-.29-.33-.43-.09.05-.21.13-.37.22-.18.1-.7.4-1.01.49-.64.2-1-.27-1.62-.29-.48,0-1.2.2-2.1,1.29.16.2.32.4.48.6.2-.23.61-.62,1.19-.7.19-.03.9-.09,1.96.86,2.84,2.56,2.58,7.47,2.54,8.34-.02.36-.09,1.75-.39,1.78-.34.04-.64-1.15-.71-1.38-.19-.62-.29-1.25-.41-1.89-.02-.1-.21-1.19-.32-1.18-.07,0-.08.84.03,1.73.12.97.49,1.99.24,2.97-.13.49-.26.54-.31.56-.35.09-.78-.76-1.43-1.81-2.86-4.57-3.1-5.14-3.15-6.02-.04-.67.02-1.82.77-3.26-.16-.2-.32-.4-.48-.6-.12.19-.32.5-.54.88-.43.75-.36.75-.51.93-.44.55-1.01.45-2.26.9-.5.18-.91.38-1.18.53.14.32.29.64.43.95.22-.14.65-.38,1.24-.39.31,0,.84-.02,1.06.32.23.36-.03.89-.14,1.12-.17.35-.41.57-.56.7.23.33.46.65.69.98.13-.16.5-.58,1.03-.61,0,0,.3-.02.63.14,1.21.58,3.36,4.5,2.65,5.01-.35.25-1.25-.38-1.31-.42-.19-.14-.26-.22-.81-.82-.89-.98-.97-1.02-.99-1.01-.03.02.11.25.56,1.06.35.63.46.84.47,1.15,0,.04,0,.47-.17.71-.62.85-4.2.12-4.49-1.32-.11-.55.39-1.23,1.38-2.6.41-.56.78-1,1.04-1.29-.23-.33-.46-.65-.69-.98-.12.09-.5.34-1.01.31-.1,0-.93-.08-1.15-.72-.15-.45.08-1.01.57-1.34-.14-.32-.29-.64-.43-.95-.23.2-.55.53-.84.99-.35.56-.42.95-.63,1.41-.2.46-.58,1.09-1.35,1.75.16.19.32.38.48.57.11-.22.53-.99,1.43-1.31.74-.27,1.8-.24,1.98.19.19.43-.59,1.13-1.74,2.17-.82.74-1.28,1.15-1.58,1-.51-.25-.12-1.94-.1-2.05-.16-.19-.32-.38-.48-.57-.33.23-.78.61-1,1.21-.39,1.04.24,1.82-.2,2.71-.15.3-.46.7-1.19,1,.24.21.48.41.72.62.33-.33.87-.78,1.64-.98,1.2-.32,2.08.2,3.81.79,2.7.92,4.42.97,4.39,1.19-.02.22-1.66-.01-4.2.48-1.31.25-2.34.53-2.34.53-.93.31-1,.32-1.43.38-.9.12-2.54.07-2.79-.67-.24-.68.79-1.6.93-1.72,0,0-.28-.24-.72-.62-.41.17-.99.5-1.24,1.1-.3.69.07,1.23,0,2.1-.04.53-.25,1.32-1.1,2.24.28.11.56.22.83.33.27-.29.7-.7,1.32-1.05,1.46-.82,2.81-.66,5.16-.53,3.8.21,5.06-.07,5.11.24.1.57-4.49,1.71-5.49,1.96-2.22.55-6.09,1.51-6.54.56-.1-.21-.06-.56.45-1.18-.28-.11-.56-.22-.83-.33-.36.4-1.17,1.4-.86,2.08.22.49.96.69,3.1.64,3.23-.07,8.19-.77,10.12-1.69.47-.22,1.11-.57,2.06-.65.26-.02.45-.01.64,0,1.42.07,1.61.51,2.85.62.73.07,1.19-.04,2,.25.09.03.25.08.44.18.56.3.91.67,1.48,1.3.48.53.85,1.03,1.51,2.04.67,1.03,1.15,1.77,1.75,2.87.52.95,1.09,2.1,1.65,3.45-.06,1.5-.05,3.17.07,4.96.13,1.86.35,3.57.62,5.09l2.21,2.6Z"/>
  <path class="cls-1" d="M35.85,118.72c-.61,1.58-1.31,3.78-1.71,6.49,0,0-.61,4.13,0,8.88,1.18,9.21,6.8,17.84,8.14,19.83-.42-1.26-.84-2.52-1.27-3.78-1.01-1.78-2.29-4.3-3.44-7.45-1.03-2.83-2.34-6.44-2.58-11.27-.12-2.4-.02-6.06,1.24-10.41-.13-.76-.26-1.53-.4-2.29Z"/>
  <path class="cls-1" d="M25.11,69.98v1.38c-.48-.03-1.54-.02-2.52.64-1,.67-1.33,1.63-1.72,2.72-.62,1.74-.96,4.34-.07,4.8.43.22.8-.22,1.93-.14.77.05.88.41,1.43.36.77-.07.77-.78,1.58-.93.64-.12.95.23,1.47-.01.32-.15.52-.44.63-.66.09.11.25.27.48.39.8.41,1.53-.31,2.29-.14,1.3.28,2.52,1.5,2.86,2.86.47,1.87-.87,3.4-.43,3.72.37.27,1.59-.58,2.44-1.5.77-.84,2.43-3.03,2.29-7.45.29-.5.58-1,.86-1.5.14.06.38.15.68.22.69.14.88-.08,1.25.07.65.26.75,1.15,1.04,1.1.08-.01.17-.09.26-.37-.08.32-.15.7-.17,1.13-.06,1.29.37,2.31.66,2.87.6.94,1.21,1.88,1.81,2.82.26.3.61.74.91,1.33,1.27,2.46,1.04,5.99-1,8.38-.27.32-1.7,1.96-3.87,2.36-3.2.59-4.06.66-4.06.66-.24,0-.82.05-1.23.47-.35.35-.42.83-.44,1.13l-2.94,1.74c-.58.39-1.16.79-1.74,1.18-.23-.16-.61-.36-1.1-.4-.68-.05-1.21.26-1.53.44-1.49.84-2.83,1.59-4.23,1.65-.8.03-.85-.19-1.91-.14-.93.04-1.68.25-2.17.43-.12-.26-.24-.53-.36-.79.63-.21,1.5-.58,2.37-1.28,1.59-1.27,2.24-2.85,2.5-3.59h2.15c-.49.43-1.2,1.09-1.93,2.01-.69.86-1.62,2.01-1.36,2.36.24.33,1.32-.27,3.44-1.07,4.05-1.53,5.46-1.37,6.66-2.94.49-.63,1.12-1.78.72-2.36-.38-.55-1.5-.36-2.36-.21-1.17.2-3.03.72-5.16,2.22h-2.15c.31-1.48.62-2.96.93-4.44.62-.03,1.47-.12,1.58-.5.18-.64-1.96-1.63-1.79-2.01.12-.28,1.47-.21,2.47.04.35.09,1.02.29,1.5-.05.07-.05.11-.09.15-.13.12.13.24.19.32.22.07.02.17.01.45.1.22.05,3.56,2.22,5.79,3.67-.19.4-.36.92-.14,1.23.08.12.4.45,2.49-.06,1.43-.35,2.79-.7,4.37-1.79.97-.67,2.43-1.68,2.22-2.29-.26-.76-2.96-.79-5.09,0-1.97.73-3.21,2.08-3.86,2.92-.79-.47-1.58-.94-2.37-1.41.77-.55,1.53-1.09,2.3-1.64l1.51-.77c.36-.1.83-.24,1.37-.41.67-.21,1.26-.4,1.93-.64,1.46-.54,2.28-1.01,2.34-.91.03.06-.22.27-.41.42-.84.69-1.56.9-1.52,1.06,0,.04.06.1.5.12.81.05,1.42-.1,1.43-.1,1.93-.31,2.07-.28,2.3-.49.67-.62.52-1.78.43-2.44-.08-.61-.25-1.83-1-2.15-.51-.21-1.05.09-2.72,1.22-2.61,1.77-2.75,2.06-3.94,2.72-1.91,1.06-3.36,1.31-3.31,1.56.03.14.55.23,2.61.05-.2.56-.39,1.13-.59,1.69-1.96.5-3.92,1-5.87,1.5.26-2.51.44-3.3.57-3.29.03,0,.04,0,.14.05.27.12.93.37,1.01.27.04-.05-.03-.22-.75-.91,1.6-.3,3.27-.81,4.95-1.6.14-.07.28-.13.42-.2.16-.05.39-.13.66-.23.54-.21,1.65-.69,2.89-1.67,1.49-1.19,2.24-1.78,2.51-2.79.31-1.21-.17-2.27-.79-3.65-.39-.87-1.1-2.46-1.72-2.36-.62.09-.47,1.8-1.22,4.01-1.19,3.52-4.01,5.31-3.65,5.73.21.24,1.2-.27,1.5-.43,1.24-.64,1.9-1.56,1.97-1.5.05.04-.22.56-.72,1.11-1.15,1.26-2.53,1.64-2.47,1.83.02.07.22.11,1.03-.03-.37.39-.74.78-1.11,1.17-1.12.45-2.24.91-3.37,1.36-2.24-1.74-2.53-2.57-2.36-3.01.16-.42.71-.37,1.36-1.07.57-.62,1.08-1.67.72-2.15-.37-.49-1.5-.2-2.01,0-.21.09-.84.34-1.29,1,0,0-.27.4-.38.91-.22,1.01.8,2.7,2.67,4.18.14.74.29,1.48.43,2.22-.85-.76-1.7-1.53-2.55-2.29.04-.04.11-.12.13-.23.14-.54-.67-1.29-.98-1.66-.46-.55-.72-.81-1.07-1.05-.42-.28-.81-.43-1.09-.52.11-.38.21-.75.32-1.13.33-.08.85-.25,1.36-.64.61-.48,1.32-1.39,1.07-1.79-.25-.41-1.39-.16-2.08.14-.12.05-1.66.75-1.5,1.5.11.54,1.02.76,1.15.79-.11.38-.21.75-.32,1.13-.29-.04-.8-.08-1.39.1-.43.13-.76.32-.97.47-.14-.29-.28-.59-.42-.88.19-.11.78-.48.95-1.17.29-1.19-.93-2.43-1.36-2.29-.32.1.02.9-.54,2.32-.15.38-.31.68-.18.9.18.3.74.28,1.13.24.14.29.28.59.42.88-.36.22-1.12.76-1.33,1.67-.32,1.37.76,3.12,2.79,3.87-.31,1.48-.62,2.96-.93,4.44-.24-2.19-1.04-3.31-1.72-3.94-1.34-1.23-3.37-1.56-3.29-2.15.05-.37.86-.44.86-.79,0-.19-.35-.22-.92-.55-.34-.2-.57-.4-.8-.6-.25-.21-.56-.5-.89-.88.03,0,.21.06.37-.05.07-.05.11-.12.13-.16.07-.85.26-1.8.82-1.99.43-.14.85.23,1.03.05.28-.29-.66-1.18-.39-2.05.16-.52.64-.53,1-1,.34-.45.59-1.29-.03-3.04-.07-.28-.14-.58-.18-.9-.15-.99-.11-1.86,0-2.56.02-.53.15-1.99,1.23-3.31,1.67-2.04,4.19-2.03,4.53-2.02Z"/>
  <path class="cls-1" d="M25.11,71.35v-1.38c.15-.02.38-.03.65.02.64.14,1.04.58,1.41,1,.4.44.55.7.74,1.02.28.46.3.62.62.84,1,.68,2.34.35,2.86.21.84-.21,1.45-.6,1.79-.86-1.56-5.06-1.78-6.26-1.65-6.3.21-.08,1.44,2.76,1.5,2.9.48,1.1.81,2.05,1.04,2.76,1.7-.89,2.42-.77,2.76-.5.47.36.31,1.05.93,2.22.29.54.61.95.86,1.22-.29.5-.58,1-.86,1.5-.34-1.47-.98-2.31-1.36-2.72-.34-.37-.58-.52-.86-.57-.57-.1-.88.31-1.65.72-1.22.65-2.88.92-3.8,1.07-.37.06-.7.1-.86.36-.18.3.05.8.5,1.79.28.61.42.92.68,1.22.35.42.74.67,1,.81l-2.61,1.27c-.5-.17-1-.33-1.5-.5.08-.2.2-.52.35-.9.47-1.17.62-1.37.72-1.68.49-1.48-.82-3.26-1.3-3.85-.03-.03-.07-.08-.13-.16-.54-.67-.6-.96-.88-1.19-.17-.15-.46-.3-.97-.31Z"/>
  <path class="cls-1" d="M33.25,83.74c.34-.67.74-1.67.87-2.93.15-1.47-.13-2.72-.21-2.72-.06,0,0,.72-.32,1.79-.11.36-.21.58-.26.71-.22.57-.39,1.52-.08,3.15Z"/>
  <path class="cls-1" d="M19.55,78.77c-.41-.63-1.2-1.6-2.4-1.83-1.22-.23-2.23.42-4.01,1.58-1.22.79-1.83,1.19-2.08,1.79-.85,2.13,2.02,4.83,2.15,4.94,1.55,1.42,3.35,1.81,4.3,1.93.39.5.79,1.01,1.18,1.51-.25-.07-.65-.16-1.13-.26-1.01-.19-1.73-.23-1.98-.25-2.02-.18-2.68-2.08-5.59-2.86-1.37-.37-1.77-.14-1.93,0-.66.56.11,1.64-.5,2.94-.63,1.34-2.01,1.35-2.08,2.29-.06.84.98,1.53,1.36,1.79.68.46,1.35.63,2.51.79,1.57.22,3.05.3,5.26.24,2.55-.07,3.2-.23,3.24-.48.02-.1-.08-.17-.76-.81-.73-.7-.98-.9-.94-.96.06-.09.83.35,2.01.86,1.05.45,2.24.99,2.65.57.25-.26.11-.78.1-.81-.15-.5-.61-.69-.68-.72.5,0,1.01.02,1.51.03.63.7,1.46,1.81,1.86,3.22.27.97.12,1.48,0,1.77-.17.4-.43.68-.61.84.3-.83.19-1.12.06-1.25-.28-.26-1.13.05-2.75.86-1.8.9-2.01,1-2.86,1.58-1.97,1.31-4.69,1.39-6.45,1.65-.95.14-1.88.23-1.93.57-.06.36.89.79,1.22.93.9.4,3.19,1.07,8.24-.43.12.26.24.53.36.79-1.93.55-3.56.8-4.73.93-2.54.28-5.25.59-6.09-.72-.33-.51-.21-1.02-.83-1.92-.41-.6-.89-.99-1.22-1.23.21-.29.41-.57.62-.86.54.31,1.34.7,2.36.93,2.65.59,4.87-.31,6.52-1,2.97-1.25,5.14-3.16,5.01-3.37-.08-.14-1.13.48-3.58,1.29-.4.13-2.78.92-2.86.72-.06-.16,1.32-.9,2.29-1.36,1.36-.64,2.03-.77,2.01-.93-.03-.24-1.62-.09-4.66-.14-1.63-.03-2.45-.05-3.04-.12-2.33-.27-3.1-.81-4.19-.31-.15.07-1.24.59-1.43,1.65-.18.98.44,2.09,1.58,2.65-.21.29-.41.57-.62.86-.22-.17-.53-.44-.84-.83-.27-.35-1.23-1.57-.96-2.79.23-1.03,1.14-1.15,1.06-1.9-.07-.62-.68-.73-1-1.65-.21-.61-.12-1.16-.1-1.31.24-1.44,1.62-1.49,2.1-2.91.4-1.19-.33-1.72.14-2.44.6-.91,2.17-.16,3.01-1.07.65-.72-.03-1.47.29-2.94.5-2.27,2.8-3.53,4.87-4.66,1.27-.69,1.8-.7,2.15-.64.81.13,1.31.71,1.93.5.37-.13.59-.47.71-.7"/>
  <path class="cls-1" d="M146.92,79.18c.08-4.81.11-8.36.09-9.31,0-.12-.12-.53-.32-.74-.17-.18-.32-.32-.47-.42-.43-.31-.68-.35-1.06-.55-.41-.21-.67-.44-.92-.66-.66-.57-.69-.87-1.27-1.22-.24-.15-.44-.23-.64-.29-.63-.19-1.14-.09-2.09-.31-2.11-.49-1.97-1.59-5.25-3.58-1.73-1.05-2.7-1.32-2.82-2.2-.11-.86.67-1.79.81-1.96.44-.52.93-.8,1.24-.95.14.22.29.45.43.67-.77.24-1.32.73-1.38,1.29-.07.6.45,1.07.95,1.53.79.71,1.33.82,2.2,1.29,1.94,1.05,1.89,1.93,3.58,2.53.71.25,1.81.48,2.01.14.31-.55-1.96-2.35-1.81-2.53.12-.15,1.63,1.14,1.96.86.26-.23-.35-1.41-.91-2.2-.47-.66-1.42-1.96-3.25-2.63-1.44-.53-2.72-.4-3.34-.29-.14-.22-.29-.45-.43-.67.29-.11.78-.25,1.38-.29,1.75-.09,2.87.84,3.25.43.24-.26-.25-.69-.1-1.67.03-.18.12-.7.49-1.18.63-.8,1.62-.9,1.86-.92,0,.28-.02.57-.02.85-.13,0-.59,0-.94.35-.29.29-.5.81-.3,1.09.02.03.09.12.41.21.22.06.6.14,1.09.06.06.14.12.29.18.43-.11.02-.9.17-1.14.79-.2.5.08,1,.36,1.5.28.51.62.81.95,1.1.34.3.96.84,1.2.69.25-.16-.12-.93.07-1.06.16-.1.71.5,1.18,1,1.16,1.22,1.74,1.83,2.01,1.74.46-.17.25-1.94-.09-3.16-.27-.96-.46-1.64-1.07-2.16-1.27-1.09-3.21-.52-3.46-.44-.06-.14-.12-.29-.18-.43.17-.01.39-.04.64-.1.32-.08,1.16-.28,1.19-.64.03-.3-.52-.59-.72-.69-.54-.28-1.07-.29-1.37-.27,0-.28.02-.57.02-.85,1.25-.18,2.13.01,2.71.23.78.29,1.24.7,2.1.73.63.02,1.15-.17,1.48-.33.14.08.29.16.43.24-.31.15-.38.29-.38.38,0,.15.13.37,1.46.97.59.26,1.09.46,1.43.58-.11.28-.23.56-.34.84-.29-.13-.7-.29-1.22-.43-.91-.24-1.63-.43-2.05-.1-.35.27-.34.79-.33,1.38.02,1.1.37,1.54.81,3.01.33,1.12.2,1.97.62,2.1.12.04.28.01.38-.07.25-.18.16-.6.18-1.13.02-.73.24-1.43.35-1.43.24,0,.08,3.5.76,3.63.22.04.42-.32,1.15-1.43,1.54-2.36,1.84-2.51,1.81-3.06-.06-1.37-2.03-2.29-2.46-2.48.11-.28.23-.56.34-.84.36.19.91.49,1.55.89.74.46.99.67,1.15.57.27-.17.1-1.16-.38-1.91-1.09-1.7-3.52-1.67-3.63-1.67-.5.01-.91.11-1.19.19-.14-.08-.29-.16-.43-.24.28-.13.68-.3,1.19-.42.43-.1,1.19-.27,2.13-.07.34.07,1.07.27,1.79.82.92.72.78,1.22,1.53,1.58.25.12.5.17,1.91.14.87-.02,1.6-.06,2.15-.1,0,.3,0,.6.01.91-.1-.06-.25-.13-.44-.19-.39-.13-.82-.17-1.22-.12-.31.04-.66.12-.74.35-.02.06-.04.19.5,1.05.1.15.18.28.24.36-.15.11-.29.21-.44.32-.09-.21-.19-.42-.34-.59s-.37-.29-.6-.27c-.24.02-.43.2-.59.37-.28.31-.52.66-.74,1.01-.45.7-.86,1.42-1.27,2.14-.41.73-.83,1.46-1.14,2.23-.09.22-.15.5.02.66.08.08.19.1.3.11.26.02.53-.06.78-.15.61-.22,1.19-.53,1.75-.88.92-.57,1.35-.95,1.69-1.53.72-1.23.3-2.66.14-3.12.15-.11.29-.21.44-.32.16.19.4.49.65.89.42.66.4.84.67,1.1.57.55,1.44.49,1.67.48.43-.03,1.43-.2,1.62-.72.41-1.07-2.8-3.11-2.95-3.2,0-.3,0-.6-.01-.91.31.02.75.09,1.24.29.34.14,1.48.65,2.1,1.86.67,1.31.38,2.72.33,2.96-.12.58-.3.9-.24,1.53.08.74.4.96.43,1.38.04.52-.39,1.29-2.48,2.34-.22-.24-.44-.48-.66-.72.24-.06.89-.25,1.37-.86.05-.07.85-1.09.48-1.91-.4-.88-1.88-1-2.84-.76-.45.11-.64.27-2.17,1.43-1.8,1.37-2.12,1.58-2.05,1.81.12.44,1.47.43,2.86.43,1,0,1.82-.08,2.35-.14.22.24.44.48.66.72-.47.17-1.27.42-2.29.53-2.85.3-4.11-.44-5.29.27-.67.41-.78.91-1.59,1.4-.66.39-1.04.32-1.33.84-.19.34-.21.8-.2.95.09,1.18.11,3.89.14,8.19-.67.24-1.34.48-2.01.72Z"/>
  <path class="cls-1" d="M61.26,203.36c2.99-.18,5.36-.35,6.79-.46,10.9-.8,27.79-2.16,28.02-2.18,0,0,.05,0,.12,0,.14,0,.21-.01.24,0,.18.03.4.54.21.79-.09.11-.28.13-.68.16-.64.05-.97.07-.97.07-.94-.01-9.41.79-19.12,1.56-5.59.44-8.44.62-11.21.75-1.79.09-3.27.14-4.26.18.29-.29.57-.57.86-.86Z"/>
  <path class="cls-1" d="M67.51,239.49c3.51-.4,6.3-.74,7.97-.94,12.79-1.59,32.61-4.15,32.87-4.18,0,0,.06,0,.14-.02.16-.02.25-.03.28-.03.22.02.5.51.3.77-.09.12-.33.15-.79.21-.76.09-1.13.14-1.13.14-1.11.05-11.04,1.47-22.43,2.93-6.56.84-9.9,1.22-13.16,1.56-2.11.22-3.84.38-5.01.48.32-.31.64-.61.96-.92Z"/>
  <path class="cls-1" d="M60.5,206.04c4.25-.32,7.63-.6,9.66-.77,15.49-1.31,39.51-3.45,39.82-3.48,0,0,.08,0,.17-.01.2-.02.3-.02.34-.02.26.02.58.52.33.78-.12.12-.4.15-.96.19-.91.08-1.37.12-1.37.12-1.34.03-13.38,1.23-27.18,2.45-7.95.7-12,1.01-15.94,1.27-2.55.17-4.65.3-6.06.38.4-.3.8-.6,1.2-.9Z"/>
  <path class="cls-1" d="M70.6,225c3.49-.34,6.27-.64,7.94-.82,12.73-1.38,32.46-3.64,32.72-3.67,0,0,.06,0,.14-.02.16-.02.25-.02.28-.02.21.02.49.52.29.78-.09.12-.33.15-.79.2-.75.08-1.13.12-1.13.12-1.1.04-10.99,1.3-22.33,2.58-6.53.74-9.86,1.07-13.1,1.35-2.09.18-3.82.32-4.98.41.32-.3.65-.6.97-.9Z"/>
  <path class="cls-1" d="M165.36,245.04c-17.34,2.64-28.51,4.34-28.57,4.35,0,0,0,0,0,0-.02,0-.07.01-.13.02-.16.02-.24.03-.28.03-.22-.01-.51-.5-.32-.76.09-.12.32-.16.78-.23.75-.11,1.12-.17,1.12-.17,1.22-.09,10.69-1.69,22.21-3.45,1.19-.18,3.12-.47,5.52-.83-.11.34-.22.69-.34,1.03Z"/>
  <path class="cls-1" d="M162.85,256.39c-12.83,1.86-18.82,2.73-18.87,2.73,0,0,0,0,0,0-.02,0-.07.01-.13.02-.16.02-.24.03-.28.03-.21-.01-.51-.5-.31-.77.09-.12.32-.16.78-.22.37-.05.75-.13,1.13-.16.56-.04,4.92-.66,17.67-2.6,0,.32.02.64.02.97Z"/>
  <path class="cls-1" d="M162.77,259.47c-5.47.79-10.9,1.56-10.94,1.57,0,0,0,0,0,0-.01,0-.07.01-.14.02-.16.02-.24.03-.28.03-.21-.01-.51-.5-.31-.77.09-.12.32-.16.78-.22.38-.05.75-.13,1.13-.16.55-.03,3.08-.38,9.85-1.42l-.09.94Z"/>
  <path class="cls-1" d="M165.38,267.25c-22.87,4.24-32.24,5.98-32.37,6,0,0-.06.01-.14.03-.16.03-.24.04-.28.04-.22,0-.53-.48-.34-.75.09-.13.32-.17.77-.25.74-.14,1.12-.2,1.12-.2,1.22-.13,12.01-2.3,22.09-4.17,2.03-.38,5.09-.94,8.85-1.6.1.3.2.61.3.91Z"/>
  <path class="cls-1" d="M119.15,207.29c-.07.07-.17.07-.2.07-.67-.02-25.73,2.4-25.8,2.4-.03,0-.07,0-.16.01-.13.01-.27.02-.4.02-.12,0-.13-.1-.15-.21-.02-.08-.03-.17-.05-.25,0-.01,0-.01,0-.02-.03-.15-.05-.34.11-.41.06-.03.13-.04.2-.04,1.75-.14,3.5-.27,5.24-.43,1.74-.15,3.47-.31,5.21-.47,2-.18,4-.37,6-.55,1.83-.17,3.65-.34,5.48-.51,1.22-.11,2.43-.23,3.65-.34.25-.02.51-.05.76-.07.03,0,.08,0,.12.04.05.05.04.14.03.35,0,.29.01.35-.04.41Z"/>
  <path class="cls-1" d="M94.44,107.77c-.03.09-.12.13-.14.15-.58.33-21.1,14.88-21.16,14.93-.03.02-.06.04-.13.09-.11.08-.22.15-.34.22-.1.06-.15,0-.22-.07-.05-.05-.1-.1-.15-.15,0,0,0,0,0,0-.09-.09-.18-.21-.08-.35.04-.05.1-.09.15-.13,1.44-1,2.89-1.99,4.33-2.99,1.43-1,2.85-2,4.28-3,1.64-1.16,3.28-2.31,4.93-3.47,1.5-1.06,3-2.11,4.5-3.17,1-.7,1.99-1.41,2.99-2.11.21-.15.41-.3.62-.44.02-.02.07-.05.12-.04.07,0,.09.08.17.23.11.21.15.24.13.31Z"/>
  <path class="cls-1" d="M122.9,84.88c-.04.1-.16.17-.18.18-.74.45-27.04,19.68-27.11,19.74-.03.02-.08.06-.16.12-.14.1-.28.2-.43.29-.13.09-.19.02-.26-.04-.06-.05-.11-.1-.17-.15,0,0,0,0-.01,0-.1-.09-.2-.21-.07-.38.05-.06.13-.12.2-.17,1.85-1.32,3.7-2.64,5.54-3.97,1.83-1.32,3.66-2.65,5.48-3.98,2.1-1.53,4.21-3.06,6.31-4.59,1.92-1.4,3.84-2.79,5.76-4.19,1.28-.93,2.55-1.86,3.83-2.79.27-.19.53-.39.8-.58.03-.02.09-.06.15-.06.08,0,.1.07.19.23.12.21.17.25.13.33Z"/>
  <path class="cls-1" d="M124.51,87.43c-.01.08-.09.11-.11.12-.47.24-16.81,11.72-16.86,11.76-.02.01-.05.03-.1.07-.09.06-.18.11-.27.17-.08.05-.13-.03-.19-.09-.05-.06-.09-.11-.14-.17,0,0,0,0,0-.01-.09-.1-.17-.23-.1-.35.03-.05.07-.08.12-.11,1.15-.78,2.31-1.55,3.45-2.34,1.14-.79,2.28-1.57,3.41-2.36,1.31-.91,2.62-1.82,3.92-2.73,1.19-.83,2.39-1.66,3.58-2.5.79-.55,1.59-1.11,2.38-1.66.17-.11.33-.23.5-.34.02-.01.06-.03.1-.02.06.02.08.09.17.25.11.22.16.26.14.32Z"/>
  <path class="cls-1" d="M106.73,239.15c-.07.08-.2.08-.23.08-.79.02-30.37,3.84-30.46,3.85-.04,0-.09.01-.18.02-.16.02-.31.03-.47.04-.14.01-.16-.1-.19-.2-.03-.08-.05-.17-.07-.25,0-.01,0-.01,0-.02-.04-.15-.07-.33.11-.42.07-.03.15-.04.23-.05,2.06-.24,4.13-.47,6.19-.72,2.05-.25,4.1-.51,6.15-.76,2.36-.3,4.72-.59,7.09-.89,2.16-.27,4.31-.54,6.47-.82,1.44-.18,2.87-.36,4.31-.54.3-.04.6-.08.9-.11.03,0,.1,0,.15.03.07.05.05.13.05.35,0,.29.03.35-.04.41Z"/>
  <path class="cls-1" d="M102.01,227.74c-.05.07-.13.07-.15.07-.53-.02-20.33,2.51-20.38,2.51-.02,0-.06,0-.12.01-.11.01-.21.02-.32.02-.09,0-.11-.1-.13-.21-.02-.08-.03-.17-.05-.25,0-.01,0-.01,0-.02-.03-.15-.05-.34.08-.41.05-.03.1-.04.15-.04,1.38-.15,2.76-.29,4.14-.45,1.37-.16,2.74-.33,4.12-.49,1.58-.19,3.16-.39,4.74-.58,1.44-.18,2.89-.36,4.33-.53.96-.12,1.92-.24,2.88-.35.2-.02.4-.05.6-.07.02,0,.07,0,.1.04.04.05.03.14.03.35,0,.29.02.35-.02.41Z"/>
  <path class="cls-1" d="M88.34,260.3c-4.26.76-7.16,1.28-7.47,1.33-.08.01-.16.03-.24.04-.21.04-.41.06-.62.09-.18.03-.21-.08-.26-.18-.04-.08-.07-.16-.1-.24,0-.01,0-.01,0-.02-.06-.15-.1-.33.13-.43.15-.07.29-.08.3-.08.21,0,3.4-.55,8.09-1.36.06.28.12.56.18.85Z"/>
  <path class="cls-1" d="M90.24,268.61c-5.3.94-8.95,1.59-9.26,1.65-.08.01-.16.03-.24.04-.21.04-.41.06-.62.09-.18.03-.21-.08-.26-.18-.04-.08-.07-.16-.1-.24,0-.01,0-.01,0-.02-.06-.15-.1-.33.13-.43.09-.04.2-.06.3-.08,2.7-.45,5.39-.93,8.09-1.36.46-.07,1.22-.2,2.17-.38-.07.3-.13.6-.2.9Z"/>
  <path class="cls-1" d="M121.05,263.15c-.12.1-.28.1-.3.1-.18,0-7.09,1.21-17.51,3.05.02-.28.05-.57.07-.85.11-.02,2.12-.37,2.24-.39,4.74-.84,7.12-1.25,8.45-1.49,1.87-.33,3.75-.66,5.62-.99.39-.07.78-.14,1.17-.2.04,0,.13-.02.2.01.09.04.07.13.08.35.01.29.05.35-.03.42Z"/>
  <path class="cls-1" d="M103.01,277.16c-16.22,2.88-27.08,4.81-27.4,4.87-.08.01-.16.03-.24.04-.21.04-.41.06-.62.09-.18.03-.21-.08-.26-.18-.04-.08-.07-.16-.1-.24,0-.01,0-.01,0-.02-.06-.15-.1-.33.13-.43.09-.04.2-.06.3-.08,2.7-.45,5.4-.9,8.09-1.36.13-.02,1.48-.26,4.18-.73.78-.14,2.2-.38,3.86-.68,2.12-.37,6.09-1.07,9.25-1.63.2-.03,2.51-.44,2.71-.48.03.27.07.54.1.82Z"/>
  <path class="cls-1" d="M84.67,265.37c-5.79,1.03-9.78,1.74-10.1,1.8-.08.01-.16.03-.24.04-.21.04-.41.06-.62.09-.18.03-.21-.08-.26-.18-.04-.08-.07-.16-.1-.24,0-.01,0-.01,0-.02-.06-.15-.1-.33.13-.43.09-.04.2-.06.3-.08,2.7-.45,5.4-.9,8.09-1.36.7-.12,1.4-.24,2.09-.36.24.25.47.49.71.74Z"/>
  <path class="cls-1" d="M120.25,254.53c-.09.08-.26.1-.3.1-.39.04-12.01,1.97-14.35,2.39-1.08.19-1.17.24-4.01.78-2.09.4-3.78.7-4.79.88-.08-.27-.16-.54-.23-.81,1.88-.33,6.54-1.15,8.19-1.44,1.11-.19,6.75-1.19,7.71-1.36.38-.07.63-.11.74-.13,1.87-.33,3.75-.66,5.62-.99.39-.07.78-.14,1.17-.2.04,0,.13-.02.2.01.09.04.07.13.08.35.01.29.05.35-.03.42Z"/>
  <path class="cls-1" d="M138.86,202.86c-14.05,1.28-23.1,2.1-23.3,2.12-.05,0-.1,0-.16.01-.13.01-.27.01-.4.02-.12,0-.13-.1-.15-.21-.02-.08-.03-.17-.05-.25,0-.01,0-.01,0-.02-.03-.15-.05-.34.11-.41.06-.03.13-.04.2-.04,1.75-.13,3.5-.26,5.24-.41,1.74-.15,3.47-.3,5.21-.45,2-.18,4-.36,6-.53.18-.02,4.37-.39,5.48-.49.02,0,1.8-.16,1.81-.16v.83Z"/>
  <path class="cls-1" d="M155.17,229.92c-10.99,1.25-18.13,2.06-18.33,2.09-.05,0-.1.01-.16.02-.13.01-.27.02-.4.03-.12,0-.13-.1-.16-.2-.02-.08-.04-.17-.06-.25,0-.01,0-.01,0-.02-.04-.15-.05-.34.1-.42.06-.03.13-.04.2-.05,1.74-.17,3.49-.34,5.23-.53,1.73-.19,3.47-.38,5.2-.57,2.33-.26,4.46-.5,5.99-.67.35-.04,1.78-.2,2.13-.24.09.27.17.54.26.81Z"/>
  <path class="cls-1" d="M154.63,227.88c-6.69.68-11.1,1.12-11.31,1.15-.05,0-.1.01-.16.02-.13.01-.27.02-.4.02-.12,0-.13-.1-.16-.21-.02-.08-.03-.17-.05-.25,0-.01,0-.01,0-.02-.03-.15-.05-.34.1-.41.06-.03.13-.04.2-.04,1.75-.15,3.49-.3,5.24-.46.14-.01,1.83-.17,5.21-.51.26-.03.95-.09,1.21-.12.04.28.08.56.12.84Z"/>
  <path class="cls-1" d="M154.99,220.35c-3.7.37-6.13.62-6.33.64-.05,0-.1.01-.16.02-.13.01-.27.02-.4.02-.12,0-.13-.1-.16-.21-.02-.08-.03-.17-.05-.25,0-.01,0-.01,0-.02-.03-.15-.05-.34.1-.41.06-.03.13-.04.2-.04,1.75-.15,3.49-.33,5.24-.46.37-.03.93-.07,1.62-.16l-.07.87Z"/>
  <path class="cls-1" d="M72.92,125.42c-.34-.25-.88-.89-1.03-1.5-.18-.73.15-.82.12-1.84-.02-.82-.49-1.65-.24-2.43.16-.5.48-.81.73-1.04,2.01-1.85,5.48-4.27,7.47-5.82.87-.68.89-.75,2.02-1.62,1.07-.82,1.26-.92,3.49-2.58,2.12-1.58,2.59-1.95,3.53-2.65.56-.42.96-.72,1.12-.83,1.97-1.47,2.36-1.84,3.71-2.82.89-.64,2.46-1.74,3.94-2.87,0,0,.47-.36,1.22-1.16,1.02-1.09.93-1.33.9-1.39-.15-.29-.94-.11-.95-.21-.02-.13.96-.31,2.1-.81.51-.22,1.6-.71,1.54-1-.09-.47-3.07-.15-3.09-.36-.02-.16,1.65-.49,2.67-.69.46-.09,1.4-.27,2.58-.66.96-.31.99-.41.99-.45-.01-.15-.71-.2-3.06-.27-2.37-.07-3.21-.07-3.21-.16,0-.07.98-.23,2.94-.56.56-.09.68-.12.84-.13.77-.08,1.27,0,2.41-.14,1.64-.21,2.84-.68,3.6-.99,1.56-.64,2.95-1.84,5.68-4.2,0,0,2.74-2.37,5.1-3.7.23-.13.69-.38,1.33-.55.77-.21,1.41-.19,1.74-.18,3.04.12,6.06.57,9.03,1.23,2.51.55,4.84,1.6,7.07,2.84.51.28,1.05.58,1.64.63.49.05.95-.14,1.2-.58.29-.52.21-1.13.15-1.7-.14-1.32.38-2.61,1.34-3.51,1.11-1.05,2.65-1.52,4.07-1.96.88-.27,1.6-.44,4.04-.92,1.99-.39,3.64-.69,4.82-.91.21.12.41.25.62.37-1.51.33-2.7.58-3.38.72-1.74.36-3.49.69-5.2,1.16-1.35.37-2.75.82-3.9,1.64-.67.47-1.24,1.12-1.5,1.91-.31.95.04,1.94-.19,2.9-.44,1.79-2.44,1.82-3.76,1.04-1.14-.68-2.33-1.27-3.55-1.78-1.21-.51-2.45-.76-3.69-1.17,0,0-3.6-.94-9.45-1.1-.23,0-.44-.01-.7.07-.33.1-.88.37-.88.37-.38.19-1.4.79-1.8,1.07-3.65,2.55-6.11,5.03-6.11,5.03-1.35,1.37-1.49,1.25-9.44,7.07-4.67,3.42-3.17,2.4-10.57,7.87,0,0-13.32,9.91-17.48,13.27-.29.24-.68.57-1.56,1.28-.84.68-.85.66-.92.77-.68,1.02.06,2.27.01,3.48,0,.07-.01.28.11.45.15.21.42.26.57.29.73.13,1.56-.24,1.83-.37.49.38.98.75,1.47,1.13-1.44,1.35-3.22,1.62-4.08,1Z"/>
  <path class="cls-1" d="M135.77,84.28c.98-.43,1.96-.87,2.97-1.35,1.99-.94,3.87-1.89,5.66-2.86-.47.56-.94,1.11-1.41,1.67-1.05.45-2.12.92-3.2,1.41-1.16.53-2.29,1.06-3.39,1.6l-.63-.47Z"/>
  <path class="cls-1" d="M138.76,77.51c-.13-.01-.36,1.01-.48,1.91-.21,1.65-.03,3.03.14,3.92l.76-.33c-.05-.43-.13-1.07-.19-1.86-.18-2.29-.09-3.61-.24-3.63Z"/>
  <path class="cls-1" d="M156.47,76.94c.26.01.63.07.95.31.3.22.26.38.6.73.49.51.76.37,1.15.85.26.31.14.37.48.87.32.46.48.5.61.8.1.22.18.57.03,1.11-.64-.29-1.29-.58-1.93-.87.61.09.78,0,.82-.08.17-.35-1.18-1.45-1.38-1.58-.03-.02-.14-.09-.28-.22-.04-.04-.09-.08-.13-.13-.31-.33-.4-.59-.5-.73-.15-.22-.59-.41-2.03-.19"/>
  <path class="cls-1" d="M153.66,73.22s.1.35.79,1.79c.48,1.01.89,1.84,1.17,2.41.31-.03.63-.06.94-.08-.25-.37-.61-.92-1.06-1.59-1.06-1.56-1.75-2.58-1.84-2.53Z"/>
  <path class="cls-1" d="M119.98,83.57c.23-.11.67-.28,1.17-.17.12.03.57.14,1.28,1.02.31.38.46.66.98,1.63.91,1.69.98,1.87.99,2.18.01.33-.05.97-.64,1.75.8,0,1.59-.02,2.39-.03.16-.18.31-.37.47-.55.05-.3.1-.61.14-.91-.23,0-.58-.03-.94-.2-.71-.33-1-.98-1.3-1.57-1.24-2.46-2.35-3.47-1.97-3.92.05-.06.14-.13.34-.15-.17-.1-.68-.36-1.33-.26-1.04.16-1.53,1.09-1.57,1.19Z"/>
  <path class="cls-1" d="M123.4,84.74c1.34.08,2.43.17,3.19.24.26.02.52.06.78.09.7.09,1.4.21,2.1.34,2.03.38,4.04.87,5.97,1.64,1.35.54,2.67,1.18,3.98,1.81.03.01.05.03.06.05.02.04,0,.08-.02.11-.04.07-.07.14-.11.21-.02.03-.04.07-.07.09-.05.02-.1,0-.14-.03-1.76-.97-3.62-1.77-5.54-2.35-1.02-.32-2.05-.59-3.09-.82-.94-.2-1.9-.37-2.86-.49-.95-.12-2.26-.25-3.84-.26-.13-.21-.26-.41-.4-.62Z"/>
  <path class="cls-1" d="M130.85,84.23s.04,0,.12.03c.04.02.09.03.14.05,1.19.36,1.48.44,2.92.92,1.09.36,2.59.99,3.64,1.43.37.15.68.31,1.05.47.07.03.14.06.24.12.11.06-.06.22-.11.3-.02.03-.03.04-.07.06-.05.02-.11-.01-.15-.04-.96-.44-1.86-.92-3.03-1.35-1.04-.38-1.97-.75-3.02-1.07-.37-.11-.82-.25-1.18-.36-.13-.04-.48-.14-.62-.18-.08-.02-.06-.09-.01-.19.04-.1.06-.18.09-.19Z"/>
  <path class="cls-1" d="M143.87,87.36c-.11-.07-.02-.18.02-.25,1.29-2.44,3.03-4.31,5.24-5.69,1.33-.83,2.65-1.31,4.2-1.59,1.56-.28,3.16-.33,4.74-.36.18,0,.37,0,.54.07.21.09.36.29.5.48-1.49,0-2.98.05-4.47.17-1.39.12-2.75.48-4.01,1.06-1.7.78-2.56,1.27-4.46,3.42-1.16,1.31-1.38,1.96-1.54,2.2-.07.11-.26.45-.31.55s-.08.09-.19.05c-.03,0-.17-.06-.25-.11Z"/>
  <path class="cls-1" d="M119.15,207.29c-.07.07-.17.07-.2.07-.67-.02-25.73,2.4-25.8,2.4-.03,0-.07,0-.16.01-.13.01-.27.02-.4.02-.12,0-.13-.1-.15-.21-.02-.08-.03-.17-.05-.25,0-.01,0-.01,0-.02-.03-.15-.05-.34.11-.41.06-.03.13-.04.2-.04,1.75-.14,3.5-.27,5.24-.43,1.74-.15,3.47-.31,5.21-.47,2-.18,4-.37,6-.55,1.83-.17,3.65-.34,5.48-.51,1.22-.11,2.43-.23,3.65-.34.25-.02.51-.05.76-.07.03,0,.08,0,.12.04.05.05.04.14.03.35,0,.29.01.35-.04.41Z"/>
</svg>